<?xml version="1.0" encoding="utf-8"?>
<svg width="23px" height="18px" viewBox="0 0 23 18" version="1.1" xmlns:xlink="http://www.w3.org/1999/xlink" xmlns="http://www.w3.org/2000/svg">
  <desc>Created with Lunacy</desc>
  <g id="dashboard-icon">
    <path d="M11.2941 9.29781C11.3547 9.32082 11.4189 9.33207 11.4831 9.33207C11.5467 9.33207 11.6109 9.32082 11.6715 9.29781L22.6326 5.14306C22.8335 5.06636 22.9661 4.87716 22.9661 4.66597C22.9661 4.45478 22.8335 4.26558 22.6326 4.18888L11.6715 0.0341328C11.5499 -0.0113776 11.4157 -0.0113776 11.2941 0.0341328L0.333009 4.18888C0.132055 4.26558 0 4.45478 0 4.66597C0 4.87716 0.132055 5.06636 0.333009 5.14306L11.2941 9.29781ZM11.4831 8.27254L1.9683 4.66597L11.4831 1.0594L20.9973 4.66597L11.4831 8.27254Z" transform="translate(0.0002441406 7.629395E-06)" id="Fill-1" fill="#007AFF" fill-rule="evenodd" stroke="none" />
    <path d="M11.4831 7.25489C11.4194 7.25489 11.3552 7.24364 11.2946 7.22062L0.333531 3.06588C0.132577 2.98918 0 2.79998 0 2.58879C0 2.3776 0.132577 2.1884 0.333531 2.1117L5.81408 0.0345782C6.08289 -0.0671811 6.3851 0.063214 6.48949 0.326561C6.59336 0.590419 6.45974 0.886493 6.19093 0.988252L1.9683 2.58879L11.4831 6.19536L20.9978 2.58879L16.7752 0.988252C16.5064 0.886493 16.3727 0.590419 16.4766 0.326561C16.581 0.0637253 16.8822 -0.0666698 17.152 0.0345782L22.6326 2.1117C22.8335 2.1884 22.9661 2.3776 22.9661 2.58879C22.9661 2.79998 22.8335 2.98918 22.6326 3.06588L11.6715 7.22062C11.6109 7.24364 11.5467 7.25489 11.4831 7.25489" transform="translate(0 6.551529)" id="Fill-4" fill="#007AFF" stroke="none" />
    <path d="M11.4831 7.15947C11.4194 7.15947 11.3552 7.14822 11.2946 7.12521L0.333531 2.97046C0.132577 2.89376 0 2.70456 0 2.49337C0 2.28218 0.132577 2.09298 0.333531 2.01627L5.5531 0.0347813C5.82243 -0.0674893 6.12412 0.0634171 6.22851 0.327275C6.33238 0.590111 6.19876 0.886184 5.92995 0.988966L1.96778 2.49286L11.4831 6.09994L20.9983 2.49286L17.0362 0.988966C16.7673 0.886184 16.6337 0.590111 16.7376 0.327275C16.842 0.0634171 17.1442 -0.066978 17.413 0.0347813L22.6326 2.01627C22.8335 2.09298 22.9661 2.28218 22.9661 2.49337C22.9661 2.70456 22.8335 2.89376 22.6326 2.97046L11.6715 7.12521C11.6109 7.14822 11.5467 7.15947 11.4831 7.15947" transform="translate(0 10.73778)" id="Fill-6" fill="#007AFF" stroke="none" />
  </g>
</svg>