<svg width="63" height="75" viewBox="0 0 63 75" fill="none" xmlns="http://www.w3.org/2000/svg">
<g clip-path="url(#clip0)">
<g opacity="0.9">
<path fill-rule="evenodd" clip-rule="evenodd" d="M5.72721 75H58.0908C60.7974 75 62.9999 72.8054 62.9999 70.1087V21.1957C62.9999 20.762 62.8281 20.3478 62.5205 20.0429L42.8841 0.477717C42.5781 0.171196 42.1608 0 41.7272 0H5.72721C3.02066 0 0.818115 2.19457 0.818115 4.8913V34.2391H4.09084V4.8913C4.09084 3.9913 4.82557 3.26087 5.72721 3.26087H40.9908C40.4938 3.26087 40.0908 3.66381 40.0908 4.16087V21.1957C40.0908 22.0973 40.8239 22.8261 41.7272 22.8261H59.7272V70.1087C59.7272 71.0087 58.9925 71.7391 58.0908 71.7391H5.72721C4.82557 71.7391 4.09084 71.0087 4.09084 70.1087V55.8043H0.818115V70.1087C0.818115 72.8054 3.02066 75 5.72721 75ZM57.4134 19.5652L43.3636 5.56631V19.5652H57.4134Z" fill="#2E92FF"/>
<path d="M62.5205 20.0429L61.8852 20.6805L61.8869 20.6822L62.5205 20.0429ZM42.8841 0.477717L42.2472 1.11357L42.2489 1.11527L42.8841 0.477717ZM0.818115 34.2391H-0.0818847V35.1391H0.818115V34.2391ZM4.09084 34.2391V35.1391H4.99084V34.2391H4.09084ZM59.7272 22.8261H60.6272V21.9261H59.7272V22.8261ZM4.09084 55.8043H4.99084V54.9043H4.09084V55.8043ZM0.818115 55.8043V54.9043H-0.0818847V55.8043H0.818115ZM57.4134 19.5652V20.4652H59.5918L58.0486 18.9277L57.4134 19.5652ZM43.3636 5.56631L43.9988 4.92876L42.4636 3.39908V5.56631H43.3636ZM43.3636 19.5652H42.4636V20.4652H43.3636V19.5652ZM58.0908 74.1H5.72721V75.9H58.0908V74.1ZM62.0999 70.1087C62.0999 72.3053 60.3034 74.1 58.0908 74.1V75.9C61.2914 75.9 63.8999 73.3056 63.8999 70.1087H62.0999ZM62.0999 21.1957V70.1087H63.8999V21.1957H62.0999ZM61.8869 20.6822C62.0231 20.8171 62.0999 21.0007 62.0999 21.1957H63.8999C63.8999 20.5232 63.6331 19.8785 63.154 19.4037L61.8869 20.6822ZM42.2489 1.11527L61.8852 20.6805L63.1557 19.4054L43.5194 -0.159833L42.2489 1.11527ZM41.7272 0.9C41.9247 0.9 42.112 0.978115 42.2472 1.11357L43.5211 -0.158136C43.0443 -0.635723 42.397 -0.9 41.7272 -0.9V0.9ZM5.72721 0.9H41.7272V-0.9H5.72721V0.9ZM1.71812 4.8913C1.71812 2.6947 3.51463 0.9 5.72721 0.9V-0.9C2.52669 -0.9 -0.0818847 1.69443 -0.0818847 4.8913H1.71812ZM1.71812 34.2391V4.8913H-0.0818847V34.2391H1.71812ZM4.09084 33.3391H0.818115V35.1391H4.09084V33.3391ZM3.19084 4.8913V34.2391H4.99084V4.8913H3.19084ZM5.72721 2.36087C4.33218 2.36087 3.19084 3.49059 3.19084 4.8913H4.99084C4.99084 4.49202 5.31896 4.16087 5.72721 4.16087V2.36087ZM40.9908 2.36087H5.72721V4.16087H40.9908V2.36087ZM40.9908 4.16087V4.16087V2.36087C39.9967 2.36087 39.1908 3.16676 39.1908 4.16087H40.9908ZM40.9908 21.1957V4.16087H39.1908V21.1957H40.9908ZM41.7272 21.9261C41.3173 21.9261 40.9908 21.5966 40.9908 21.1957H39.1908C39.1908 22.598 40.3305 23.7261 41.7272 23.7261V21.9261ZM59.7272 21.9261H41.7272V23.7261H59.7272V21.9261ZM60.6272 70.1087V22.8261H58.8272V70.1087H60.6272ZM58.0908 72.6391C59.4859 72.6391 60.6272 71.5094 60.6272 70.1087H58.8272C58.8272 70.508 58.4991 70.8391 58.0908 70.8391V72.6391ZM5.72721 72.6391H58.0908V70.8391H5.72721V72.6391ZM3.19084 70.1087C3.19084 71.5094 4.33219 72.6391 5.72721 72.6391V70.8391C5.31895 70.8391 4.99084 70.508 4.99084 70.1087H3.19084ZM3.19084 55.8043V70.1087H4.99084V55.8043H3.19084ZM0.818115 56.7043H4.09084V54.9043H0.818115V56.7043ZM1.71812 70.1087V55.8043H-0.0818847V70.1087H1.71812ZM5.72721 74.1C3.51463 74.1 1.71812 72.3053 1.71812 70.1087H-0.0818847C-0.0818847 73.3056 2.52669 75.9 5.72721 75.9V74.1ZM58.0486 18.9277L43.9988 4.92876L42.7283 6.20386L56.7782 20.2028L58.0486 18.9277ZM42.4636 5.56631V19.5652H44.2636V5.56631H42.4636ZM43.3636 20.4652H57.4134V18.6652H43.3636V20.4652Z" fill="white"/>
</g>
<path fill-rule="evenodd" clip-rule="evenodd" d="M1.44444 57.0652H50.5556C51.3529 57.0652 52 56.3364 52 55.4348V34.2391C52 33.3375 51.3529 32.6087 50.5556 32.6087H1.44444C0.647111 32.6087 0 33.3375 0 34.2391V55.4348C0 56.3364 0.647111 57.0652 1.44444 57.0652Z" fill="#2E92FF" fill-opacity="0.1"/>
<path d="M50.5556 56.1652H1.44444V57.9652H50.5556V56.1652ZM51.1 55.4348C51.1 55.9443 50.757 56.1652 50.5556 56.1652V57.9652C51.9488 57.9652 52.9 56.7285 52.9 55.4348H51.1ZM51.1 34.2391V55.4348H52.9V34.2391H51.1ZM50.5556 33.5087C50.757 33.5087 51.1 33.7296 51.1 34.2391H52.9C52.9 32.9454 51.9488 31.7087 50.5556 31.7087V33.5087ZM1.44444 33.5087H50.5556V31.7087H1.44444V33.5087ZM0.9 34.2391C0.9 33.7296 1.24299 33.5087 1.44444 33.5087V31.7087C0.051234 31.7087 -0.9 32.9454 -0.9 34.2391H0.9ZM0.9 55.4348V34.2391H-0.9V55.4348H0.9ZM1.44444 56.1652C1.24299 56.1652 0.9 55.9443 0.9 55.4348H-0.9C-0.9 56.7285 0.0512332 57.9652 1.44444 57.9652V56.1652Z" fill="white"/>
<path d="M13.4922 47.4453C13.4922 47.2656 13.5521 47.1198 13.6719 47.0078C13.7943 46.8958 13.9466 46.8398 14.1289 46.8398C14.3138 46.8398 14.4661 46.8958 14.5859 47.0078C14.7083 47.1198 14.7695 47.2656 14.7695 47.4453C14.7695 47.6224 14.7096 47.7669 14.5898 47.8789C14.4701 47.9883 14.3164 48.043 14.1289 48.043C13.944 48.043 13.7917 47.9883 13.6719 47.8789C13.5521 47.7669 13.4922 47.6224 13.4922 47.4453ZM15.9087 48V42.3125H17.6587C18.1587 42.3125 18.6053 42.4258 18.9985 42.6523C19.3943 42.8763 19.7029 43.1966 19.9243 43.6133C20.1456 44.0273 20.2563 44.4987 20.2563 45.0273V45.2891C20.2563 45.8177 20.1469 46.2878 19.9282 46.6992C19.7121 47.1107 19.4061 47.4297 19.0102 47.6562C18.6144 47.8828 18.1678 47.9974 17.6704 48H15.9087ZM17.0805 43.2617V47.0586H17.6469C18.1053 47.0586 18.4555 46.9089 18.6977 46.6094C18.9399 46.3099 19.0636 45.8815 19.0688 45.3242V45.0234C19.0688 44.4453 18.949 44.0078 18.7094 43.7109C18.4699 43.4115 18.1196 43.2617 17.6587 43.2617H17.0805ZM25.8564 45.2852C25.8564 45.8451 25.7574 46.3359 25.5595 46.7578C25.3616 47.1797 25.0777 47.5052 24.708 47.7344C24.3408 47.9635 23.9189 48.0781 23.4423 48.0781C22.971 48.0781 22.5504 47.9648 22.1806 47.7383C21.8108 47.5117 21.5244 47.1888 21.3212 46.7695C21.1181 46.3477 21.0152 45.8633 21.0126 45.3164V45.0352C21.0126 44.4753 21.1129 43.9831 21.3134 43.5586C21.5165 43.1315 21.8017 42.8047 22.1689 42.5781C22.5387 42.349 22.9606 42.2344 23.4345 42.2344C23.9085 42.2344 24.329 42.349 24.6962 42.5781C25.066 42.8047 25.3512 43.1315 25.5517 43.5586C25.7548 43.9831 25.8564 44.474 25.8564 45.0312V45.2852ZM24.6689 45.0273C24.6689 44.431 24.5621 43.9779 24.3486 43.668C24.135 43.3581 23.8304 43.2031 23.4345 43.2031C23.0413 43.2031 22.7379 43.3568 22.5244 43.6641C22.3108 43.9688 22.2027 44.4167 22.2001 45.0078V45.2852C22.2001 45.8659 22.3069 46.3164 22.5205 46.6367C22.734 46.957 23.0413 47.1172 23.4423 47.1172C23.8356 47.1172 24.1376 46.9635 24.3486 46.6562C24.5595 46.3464 24.6663 45.8958 24.6689 45.3047V45.0273ZM31.2455 46.1055C31.2013 46.7174 30.9747 47.1992 30.5658 47.5508C30.1596 47.9023 29.6231 48.0781 28.9565 48.0781C28.2273 48.0781 27.6531 47.8333 27.2338 47.3438C26.8171 46.8516 26.6088 46.1771 26.6088 45.3203V44.9727C26.6088 44.4258 26.7052 43.944 26.8979 43.5273C27.0906 43.1107 27.3653 42.7917 27.7221 42.5703C28.0815 42.3464 28.4981 42.2344 28.9721 42.2344C29.6283 42.2344 30.157 42.4102 30.558 42.7617C30.9591 43.1133 31.1908 43.6068 31.2533 44.2422H30.0815C30.0528 43.875 29.95 43.6094 29.7729 43.4453C29.5984 43.2786 29.3315 43.1953 28.9721 43.1953C28.5815 43.1953 28.2885 43.3359 28.0932 43.6172C27.9005 43.8958 27.8015 44.3294 27.7963 44.918V45.3477C27.7963 45.9622 27.8888 46.4115 28.0737 46.6953C28.2612 46.9792 28.5554 47.1211 28.9565 47.1211C29.3184 47.1211 29.588 47.0391 29.7651 46.875C29.9447 46.7083 30.0476 46.4518 30.0737 46.1055H31.2455Z" fill="#278CFD"/>
</g>
<defs>
<clipPath id="clip0">
<rect width="63" height="75" fill="white"/>
</clipPath>
</defs>
</svg>
