<?xml version="1.0" encoding="utf-8"?>
<svg width="18px" height="22px" viewBox="0 0 18 22" version="1.1" xmlns:xlink="http://www.w3.org/1999/xlink" xmlns="http://www.w3.org/2000/svg">
  <desc>Created with Lunacy</desc>
  <g id="files-board-icon">
    <path d="M1.40283 21.8466L16.3664 21.8466C17.1398 21.8466 17.7692 21.2074 17.7692 20.4218L17.7692 6.17404C17.7692 6.04819 17.7201 5.92708 17.6322 5.83827L12.0209 0.139153C11.9334 0.0498673 11.8142 0 11.6903 0L1.40283 0C0.629405 0 0 0.639251 0 1.42478L0 20.4218C0 21.2074 0.629405 21.8466 1.40283 21.8466ZM0.935223 1.42478C0.935223 1.16309 1.14518 0.949853 1.40283 0.949853L11.4967 0.949853L16.834 6.37066L16.834 20.4218C16.834 20.6835 16.6241 20.8968 16.3664 20.8968L1.40283 20.8968C1.14518 20.8968 0.935223 20.6835 0.935223 20.4218L0.935223 1.42478Z" id="Fill-1" fill="#007AFF" fill-rule="evenodd" stroke="none" />
    <path d="M6.07895 5.69912L0.467611 5.69912C0.20949 5.69912 0 5.48635 0 5.22419L0 0L0.935223 0L0.935223 4.74926L6.07895 4.74926L6.07895 5.69912Z" transform="translate(11.22266 0.949852)" id="Fill-3" fill="#007AFF" stroke="none" />
    <path d="M6.07895 0.949853L0.467611 0.949853C0.20949 0.949853 0 0.737086 0 0.474926C0 0.212767 0.20949 0 0.467611 0L6.07895 0C6.33707 0 6.54656 0.212767 6.54656 0.474926C6.54656 0.737086 6.33707 0.949853 6.07895 0.949853" transform="translate(2.805664 7.123894)" id="Fill-5" fill="#007AFF" stroke="none" />
    <path d="M11.6903 0.949853L0.467611 0.949853C0.20949 0.949853 0 0.737086 0 0.474926C0 0.212767 0.20949 0 0.467611 0L11.6903 0C11.9484 0 12.1579 0.212767 12.1579 0.474926C12.1579 0.737086 11.9484 0.949853 11.6903 0.949853" transform="translate(2.805664 9.973457)" id="Fill-7" fill="#007AFF" stroke="none" />
    <path d="M11.6903 0.949853L0.467611 0.949853C0.20949 0.949853 0 0.737086 0 0.474926C0 0.212767 0.20949 0 0.467611 0L11.6903 0C11.9484 0 12.1579 0.212767 12.1579 0.474926C12.1579 0.737086 11.9484 0.949853 11.6903 0.949853" transform="translate(2.805664 12.82301)" id="Fill-9" fill="#007AFF" stroke="none" />
    <path d="M11.6903 0.949853L0.467611 0.949853C0.20949 0.949853 0 0.737086 0 0.474926C0 0.212767 0.20949 0 0.467611 0L11.6903 0C11.9484 0 12.1579 0.212767 12.1579 0.474926C12.1579 0.737086 11.9484 0.949853 11.6903 0.949853" transform="translate(2.805664 15.67258)" id="Fill-11" fill="#007AFF" stroke="none" />
  </g>
</svg>