<svg width="27" height="25" viewBox="0 0 27 25" fill="none" xmlns="http://www.w3.org/2000/svg">
<path fill-rule="evenodd" clip-rule="evenodd" d="M25.3999 8.06678H24.1179V5.58469C24.1179 4.90026 23.5429 4.34365 22.8358 4.34365H14.5025C14.3525 4.34365 14.2076 4.29277 14.0922 4.20031L10.4243 1.24104H2.964C2.25695 1.24104 1.68195 1.79765 1.68195 2.48209V6.82574H25.3999V8.06678H1.68195H0.399902V2.48209C0.399902 1.11322 1.5499 0 2.964 0H10.6563C10.8063 0 10.9512 0.0508828 11.0666 0.14334L14.7345 3.10261H22.8358C24.2499 3.10261 25.3999 4.21582 25.3999 5.58469V8.06678Z" fill="white"/>
<rect y="5.80808" width="27" height="18.3923" rx="2" fill="white"/>
</svg>
