<svg width="27" height="25" viewBox="0 0 27 25" fill="none" xmlns="http://www.w3.org/2000/svg">
<g clip-path="url(#clip0)">
<path fill-rule="evenodd" clip-rule="evenodd" d="M25 8.06678H23.7179V5.58469C23.7179 4.90026 23.1429 4.34365 22.4359 4.34365H14.1026C13.9526 4.34365 13.8077 4.29277 13.6923 4.20031L10.0244 1.24104H2.5641C1.85705 1.24104 1.28205 1.79765 1.28205 2.48209V6.82574H25V8.06678H1.28205H0V2.48209C0 1.11322 1.15 0 2.5641 0H10.2564C10.4064 0 10.5513 0.0508828 10.6667 0.14334L14.3346 3.10261H22.4359C23.85 3.10261 25 4.21582 25 5.58469V8.06678Z" fill="#2E92FF"/>
<path d="M25 8.06678H23.7179V5.58469C23.7179 4.90026 23.1429 4.34365 22.4359 4.34365H14.1026C13.9526 4.34365 13.8077 4.29277 13.6923 4.20031L10.0244 1.24104H2.5641C1.85705 1.24104 1.28205 1.79765 1.28205 2.48209V6.82574H25V8.06678H1.28205H0V2.48209C0 1.11322 1.15 0 2.5641 0H10.2564C10.4064 0 10.5513 0.0508828 10.6667 0.14334L14.3346 3.10261H22.4359C23.85 3.10261 25 4.21582 25 5.58469V8.06678Z" stroke="white" stroke-width="0.2"/>
<rect y="5.80807" width="27" height="18.3923" rx="2" fill="#E0EEFD" stroke="#4DA1FF"/>
</g>
<g clip-path="url(#clip1)">
<path fill-rule="evenodd" clip-rule="evenodd" d="M8.6253 14.5574L15.2691 17.386L16.0223 11.0759L8.6253 14.5574ZM15.4259 17.8252C15.3998 17.8252 15.3738 17.8198 15.3496 17.8097L8.11059 14.7276C8.04467 14.6995 8.00152 14.6375 8.00003 14.5687C7.99872 14.4999 8.03925 14.4365 8.10406 14.4059L16.1638 10.6129C16.2249 10.5841 16.2979 10.5893 16.3539 10.6268C16.41 10.6641 16.4399 10.7275 16.4322 10.7922L15.6114 17.6675C15.6047 17.7237 15.5701 17.7738 15.5184 17.8017C15.4898 17.8174 15.4579 17.8252 15.4259 17.8252Z" fill="#278CFD"/>
<path d="M8.6253 14.5574L8.54013 14.3764L8.13622 14.5665L8.54695 14.7414L8.6253 14.5574ZM15.2691 17.386L15.1907 17.57L15.436 17.6745L15.4677 17.4097L15.2691 17.386ZM16.0223 11.0759L16.2208 11.0996L16.2636 10.7412L15.9371 10.8949L16.0223 11.0759ZM15.3496 17.8097L15.2712 17.9937L15.2725 17.9943L15.3496 17.8097ZM8.11059 14.7276L8.03221 14.9116L8.03224 14.9116L8.11059 14.7276ZM8.00003 14.5687L7.80007 14.5725L7.80008 14.5731L8.00003 14.5687ZM8.10406 14.4059L8.01889 14.225L8.01873 14.225L8.10406 14.4059ZM16.1638 10.6129L16.249 10.7939L16.2491 10.7938L16.1638 10.6129ZM16.3539 10.6268L16.2427 10.793L16.2431 10.7932L16.3539 10.6268ZM16.4322 10.7922L16.6308 10.8159L16.6308 10.8157L16.4322 10.7922ZM15.6114 17.6675L15.81 17.6913L15.81 17.6912L15.6114 17.6675ZM15.5184 17.8017L15.4234 17.6257L15.4224 17.6263L15.5184 17.8017ZM8.54695 14.7414L15.1907 17.57L15.3474 17.202L8.70365 14.3733L8.54695 14.7414ZM15.4677 17.4097L16.2208 11.0996L15.8237 11.0522L15.0705 17.3623L15.4677 17.4097ZM15.9371 10.8949L8.54013 14.3764L8.71047 14.7383L16.1074 11.2568L15.9371 10.8949ZM15.4259 17.6252L15.4266 17.6251L15.2725 17.9943C15.3205 18.0143 15.3726 18.0252 15.4259 18.0252V17.6252ZM15.4279 17.6257L8.18894 14.5436L8.03224 14.9116L15.2712 17.9937L15.4279 17.6257ZM8.18897 14.5436C8.19153 14.5447 8.19968 14.5505 8.19998 14.5644L7.80008 14.5731C7.80337 14.7245 7.8978 14.8544 8.03221 14.9116L8.18897 14.5436ZM8.19999 14.5649C8.20026 14.579 8.19205 14.5855 8.18938 14.5868L8.01873 14.225C7.88645 14.2874 7.79718 14.4209 7.80007 14.5725L8.19999 14.5649ZM8.18922 14.5869L16.249 10.7939L16.0787 10.4319L8.01889 14.225L8.18922 14.5869ZM16.2491 10.7938C16.2477 10.7945 16.2468 10.7945 16.2464 10.7944C16.2459 10.7944 16.2446 10.7942 16.2427 10.793L16.4652 10.4606C16.3501 10.3835 16.2025 10.3736 16.0785 10.432L16.2491 10.7938ZM16.2431 10.7932C16.241 10.7919 16.2382 10.7891 16.2361 10.7846C16.234 10.7801 16.2329 10.7745 16.2336 10.7687L16.6308 10.8157C16.6476 10.6736 16.5813 10.5379 16.4648 10.4603L16.2431 10.7932ZM16.2336 10.7685L15.4128 17.6438L15.81 17.6912L16.6308 10.8159L16.2336 10.7685ZM15.4128 17.6438C15.4141 17.633 15.42 17.6276 15.4234 17.6257L15.6133 17.9777C15.7202 17.9201 15.7952 17.8143 15.81 17.6913L15.4128 17.6438ZM15.4224 17.6263C15.4242 17.6253 15.4254 17.6252 15.4259 17.6252V18.0252C15.4903 18.0252 15.5554 18.0094 15.6144 17.9772L15.4224 17.6263Z" fill="#278CFD"/>
<path fill-rule="evenodd" clip-rule="evenodd" d="M11.5115 18.9353C11.4945 18.9353 11.4773 18.933 11.4603 18.9285C11.3794 18.9065 11.3242 18.8359 11.3247 18.7561L11.3481 15.9124C11.3484 15.8699 11.3649 15.829 11.3942 15.797L16.1031 10.6559C16.1711 10.5819 16.2891 10.5743 16.3668 10.6386C16.4445 10.7033 16.4525 10.8155 16.3848 10.8894L11.7212 15.981L11.7035 18.1168L12.7325 16.5117C12.7865 16.4278 12.9013 16.4013 12.9893 16.4525C13.0773 16.5035 13.1051 16.6132 13.0513 16.6967L11.671 18.8501C11.6364 18.904 11.5753 18.9353 11.5115 18.9353Z" fill="#278CFD"/>
<path d="M11.5115 18.9353C11.4945 18.9353 11.4773 18.933 11.4603 18.9285C11.3794 18.9065 11.3242 18.8359 11.3247 18.7561L11.3481 15.9124C11.3484 15.8699 11.3649 15.829 11.3942 15.797L16.1031 10.6559C16.1711 10.5819 16.2891 10.5743 16.3668 10.6386C16.4445 10.7033 16.4526 10.8155 16.3848 10.8894L11.7212 15.981L11.7035 18.1168L12.7325 16.5117C12.7865 16.4278 12.9013 16.4013 12.9893 16.4525C13.0773 16.5035 13.1051 16.6132 13.0513 16.6967L11.671 18.8501C11.6364 18.904 11.5753 18.9353 11.5115 18.9353" stroke="#278CFD" stroke-width="0.4"/>
</g>
<defs>
<clipPath id="clip0">
<rect width="27" height="25" fill="white"/>
</clipPath>
<clipPath id="clip1">
<rect width="9" height="9" fill="white" transform="translate(8 10)"/>
</clipPath>
</defs>
</svg>
