<?xml version="1.0" encoding="utf-8"?>
<svg width="30px" height="42px" viewBox="0 0 30 42" version="1.1" xmlns:xlink="http://www.w3.org/1999/xlink" xmlns="http://www.w3.org/2000/svg">
  <desc>Created with Lunacy</desc>
  <g id="logo" transform="matrix(-4.371139E-08 1 -1 -4.371139E-08 30 0)">
    <path d="M9.06949 4.78543L4.28952 0C-1.42984 5.72609 -1.42984 15.0092 4.28952 20.7353L9.06949 15.9503C5.99006 12.867 5.99006 7.86866 9.06949 4.78543L9.06949 4.78543Z" transform="translate(11.64373 4.294518)" id="_Path_" fill="#4DA1FF" fill-opacity="0.298039228" stroke="none" />
    <path d="M15.9354 4.29405L17.8632 6.25203L20.7132 9.07948C22.9688 6.82125 26.3612 6.14561 29.3085 7.36762C32.2557 8.58963 34.1774 11.4686 34.1774 14.6621C34.1774 17.8555 32.2557 20.7345 29.3085 21.9565C26.3612 23.1785 22.9688 22.5029 20.7132 20.2447L9.55995 9.07948C6.91995 6.43698 2.64 6.43698 7.50544e-16 9.07948L15.9332 25.0297C19.6202 28.7985 25.0451 30.2942 30.1397 28.9467C35.2343 27.5991 39.2131 23.616 40.5592 18.516C41.9053 13.416 40.4112 7.98527 36.6465 4.29441C30.9286 -1.43141 21.6554 -1.43141 15.9354 4.29405Z" transform="translate(0 0.0004648821)" id="_Path_3" fill="#4DA1FF" fill-opacity="0.298039228" stroke="none" />
    <path d="M24.7316 0.666056C28.4226 -0.0790331 32.125 1.89168 33.572 5.37163C35.0189 8.85157 33.8068 12.8701 30.6778 14.9668C27.5487 17.0635 23.3755 16.6536 20.7132 13.9881L9.55995 2.82218C6.91995 0.17967 2.64 0.17967 7.50544e-16 2.82218L0 2.82218L15.9332 18.7724C21.6532 24.4979 30.9265 24.4979 36.6465 18.7724C36.7359 18.6829 36.8239 18.5926 36.9103 18.5016C44.3302 10.6874 37.0013 -2.0423 26.4839 0.278288L24.7316 0.666056Z" transform="translate(0 6.257772)" id="_Path_5" fill="#4DA1FF" stroke="none" />
  </g>
</svg>