<?xml version="1.0" encoding="utf-8"?>
<svg width="21px" height="21px" viewBox="0 0 21 21" version="1.1" xmlns:xlink="http://www.w3.org/1999/xlink" xmlns="http://www.w3.org/2000/svg">
  <desc>Created with Lunacy</desc>
  <g id="meetings-icon">
    <path d="M0.997443 8.5877C1.4036 9.78081 3.1037 12.7041 5.5393 12.7041C7.97181 12.7041 9.6728 9.78302 10.0807 8.5877C10.1032 8.57359 10.1271 8.55904 10.1505 8.54405C10.3094 8.44572 10.4145 8.38091 10.4829 8.25922C11.0679 7.22483 11.2228 6.39679 10.9425 5.79803C10.8087 5.51188 10.6056 5.3386 10.4277 5.23542C10.4282 4.78833 10.3955 3.9334 10.1752 3.10228C10.1664 3.07141 9.29446 0 5.5393 0C1.78415 0 0.911798 3.07141 0.902968 3.10404C0.683115 3.93384 0.650446 4.78833 0.650888 5.23542C0.472533 5.3386 0.269457 5.51188 0.135691 5.79847C-0.144644 6.39679 0.00987123 7.22483 0.594821 8.25789C0.663691 8.38091 0.768761 8.44616 0.927691 8.54449C0.951089 8.55904 0.97537 8.57359 0.997443 8.5877ZM1.39388 7.79581C1.36872 7.77994 1.34444 7.76539 1.32281 7.75172C0.781564 6.76716 0.867209 6.32757 0.930339 6.18207C1.0076 6.00526 1.17006 5.96205 1.17845 5.95985C1.39697 5.91972 1.55193 5.72352 1.53913 5.50174L1.53907 5.50046C1.537 5.45655 1.48505 4.35322 1.75589 3.33199C1.76251 3.3073 2.45298 0.88183 5.5393 0.88183C8.60179 0.88183 9.29534 3.23367 9.32183 3.32979C9.5921 4.34907 9.54101 5.45919 9.53909 5.50104L9.53904 5.50218C9.52756 5.7147 9.68251 5.90826 9.88956 5.95764C9.90766 5.96205 10.0701 6.00526 10.1474 6.18207C10.211 6.32757 10.2962 6.76716 9.75492 7.75172C9.73372 7.76539 9.70944 7.77994 9.68428 7.79537C9.479 7.92324 9.33022 8.01583 9.27503 8.20939C9.0543 8.97394 7.55859 11.8222 5.5393 11.8222C3.51825 11.8222 2.02386 8.97438 1.80313 8.20807C1.74662 8.01451 1.59873 7.9228 1.39388 7.79581Z" transform="translate(4.373047 7.629395E-06)" id="Fill-1" fill="#007AFF" fill-rule="evenodd" stroke="none" />
    <path d="M1.45801 1.69485C1.38959 1.69485 1.32028 1.67898 1.25494 1.64547C0.359634 1.18119 0.0929849 0.72837 0.0488377 0.642391C-0.0624131 0.425902 0.0227909 0.16003 0.239553 0.0489198C0.45455 -0.0608679 0.714135 0.0207013 0.828035 0.227931C0.841721 0.249536 1.03376 0.537453 1.66197 0.862408C1.8783 0.974841 1.96262 1.24071 1.85048 1.45676C1.7719 1.60844 1.61739 1.69485 1.45801 1.69485" transform="translate(11.63892 11.14808)" id="Fill-4" fill="#007AFF" stroke="none" />
    <path d="M10.1424 9.16552C5.06371 9.16552 0.411924 8.32161 0.362038 8.31235C0.144834 8.27267 -0.00968123 8.07822 0.000472614 7.85777C0.210613 3.46096 2.95303 2.09545 4.99793 1.45127C6.5912 0.949073 7.42514 0.136026 7.43309 0.127648C7.60659 -0.0434267 7.88604 -0.0425449 8.05733 0.130294C8.22906 0.303573 8.22818 0.582672 8.05468 0.754188C8.01495 0.79343 7.05872 1.72641 5.26326 2.2921C3.27134 2.91996 1.21275 4.03636 0.90858 7.51121C2.23079 7.7277 6.73865 8.39392 11.3198 8.26738C11.5675 8.2612 11.767 8.45256 11.7736 8.69595C11.7803 8.93933 11.5882 9.14215 11.345 9.14876C10.9423 9.16023 10.541 9.16552 10.1424 9.16552" transform="translate(0 11.14796)" id="Fill-6" fill="#007AFF" stroke="none" />
    <path d="M0.882943 6.61372L6.1806 6.61372C6.66755 6.61372 7.06355 6.21822 7.06355 5.73189L7.06355 0.88183C7.06355 0.395501 6.66755 0 6.1806 0L0.882943 0C0.396 0 0 0.395501 0 0.88183L0 5.73189C0 6.21822 0.396 6.61372 0.882943 6.61372ZM0.882943 5.73189L0.882943 0.88183L6.1806 0.88183L6.18104 5.73189L0.882943 5.73189Z" transform="translate(13.09814 13.6834)" id="Fill-9" fill="#007AFF" fill-rule="evenodd" stroke="none" />
    <path d="M5.73913 0.88183L0.441472 0.88183C0.197338 0.88183 0 0.6843 0 0.440915C0 0.19753 0.197338 0 0.441472 0L5.73913 0C5.98326 0 6.1806 0.19753 6.1806 0.440915C6.1806 0.6843 5.98326 0.88183 5.73913 0.88183" transform="translate(13.53979 15.88797)" id="Fill-12" fill="#007AFF" stroke="none" />
    <path d="M0.441472 2.64549C0.197338 2.64549 0 2.44796 0 2.20457L0 0.440915C0 0.19753 0.197338 0 0.441472 0C0.685605 0 0.882943 0.19753 0.882943 0.440915L0.882943 2.20457C0.882943 2.44796 0.685605 2.64549 0.441472 2.64549" transform="translate(14.86401 12.80157)" id="Fill-14" fill="#007AFF" stroke="none" />
    <path d="M0.441472 2.64549C0.197338 2.64549 0 2.44796 0 2.20457L0 0.440915C0 0.19753 0.197338 0 0.441472 0C0.685605 0 0.882943 0.19753 0.882943 0.440915L0.882943 2.20457C0.882943 2.44796 0.685605 2.64549 0.441472 2.64549" transform="translate(17.51294 12.80157)" id="Fill-16" fill="#007AFF" stroke="none" />
  </g>
</svg>