<?xml version="1.0" encoding="utf-8"?>
<svg width="10px" height="10px" viewBox="0 0 10 10" version="1.1" xmlns:xlink="http://www.w3.org/1999/xlink" xmlns="http://www.w3.org/2000/svg">
  <desc>Created with Lunacy</desc>
  <g id="paper-plane-icon" transform="translate(0.1499023 0.1499939)" opacity="0.74">
    <path d="M8.16617 8.01696C8.19315 8.02821 8.22199 8.03414 8.25104 8.03414C8.28653 8.03414 8.32201 8.02545 8.35376 8.00807C8.41124 7.97706 8.44963 7.92137 8.4571 7.85897L9.36911 0.219749C9.37761 0.147865 9.34441 0.0773637 9.28216 0.0358923C9.2199 -0.00577651 9.13877 -0.0115035 9.07091 0.0204887L0.115617 4.23497C0.0436112 4.26893 -0.00141845 4.33943 3.41194e-05 4.41586C0.0016942 4.49229 0.049629 4.56121 0.12288 4.59241L8.16617 8.01696ZM8.07673 7.54616L0.694777 4.40322L8.91362 0.534931L8.07673 7.54616Z" id="Fill-1" fill="#4DA1FF" fill-rule="evenodd" stroke="#4DA1FF" stroke-width="0.3" />
    <path d="M0.207515 9.26699C0.188631 9.26699 0.16954 9.26443 0.150657 9.25949C0.0608051 9.235 -0.000617841 9.1566 4.68884e-06 9.06793L0.0259434 5.90821C0.0263584 5.86101 0.0446193 5.81559 0.0771984 5.78004L5.30935 0.0676593C5.38489 -0.0144935 5.51603 -0.0229852 5.60236 0.0485035C5.68868 0.120387 5.6976 0.244999 5.62228 0.327152L0.440548 5.98444L0.420835 8.35759L1.56421 6.57412C1.62418 6.48091 1.7518 6.45148 1.84954 6.50836C1.94728 6.56504 1.9782 6.68688 1.91843 6.7797L0.384728 9.1724C0.346339 9.23224 0.278483 9.26699 0.207515 9.26699" transform="translate(3.693848 0.000579834)" id="Fill-4" fill="#4DA1FF" stroke="#4DA1FF" stroke-width="0.3" />
  </g>
</svg>