<svg width="63" height="75" viewBox="0 0 63 75" fill="none" xmlns="http://www.w3.org/2000/svg">
<g clip-path="url(#clip0)">
<g opacity="0.8">
<path fill-rule="evenodd" clip-rule="evenodd" d="M5.72721 75H58.0908C60.7974 75 62.9999 72.8054 62.9999 70.1087V21.1957C62.9999 20.762 62.8281 20.3478 62.5205 20.0429L42.8841 0.477717C42.5781 0.171196 42.1608 0 41.7272 0H5.72721C3.02066 0 0.818115 2.19457 0.818115 4.8913V34.2391H4.09084V4.8913C4.09084 3.9913 4.82557 3.26087 5.72721 3.26087H40.9908C40.4938 3.26087 40.0908 3.66381 40.0908 4.16087V21.1957C40.0908 22.0973 40.8239 22.8261 41.7272 22.8261H59.7272V70.1087C59.7272 71.0087 58.9925 71.7391 58.0908 71.7391H5.72721C4.82557 71.7391 4.09084 71.0087 4.09084 70.1087V55.8043H0.818115V70.1087C0.818115 72.8054 3.02066 75 5.72721 75ZM57.4134 19.5652L43.3636 5.56631V19.5652H57.4134Z" fill="#FF6D4A"/>
<path d="M62.5205 20.0429L61.8852 20.6805L61.8869 20.6822L62.5205 20.0429ZM42.8841 0.477717L42.2472 1.11357L42.2489 1.11527L42.8841 0.477717ZM0.818115 34.2391H-0.0818847V35.1391H0.818115V34.2391ZM4.09084 34.2391V35.1391H4.99084V34.2391H4.09084ZM59.7272 22.8261H60.6272V21.9261H59.7272V22.8261ZM4.09084 55.8043H4.99084V54.9043H4.09084V55.8043ZM0.818115 55.8043V54.9043H-0.0818847V55.8043H0.818115ZM57.4134 19.5652V20.4652H59.5918L58.0486 18.9277L57.4134 19.5652ZM43.3636 5.56631L43.9988 4.92876L42.4636 3.39908V5.56631H43.3636ZM43.3636 19.5652H42.4636V20.4652H43.3636V19.5652ZM58.0908 74.1H5.72721V75.9H58.0908V74.1ZM62.0999 70.1087C62.0999 72.3053 60.3034 74.1 58.0908 74.1V75.9C61.2914 75.9 63.8999 73.3056 63.8999 70.1087H62.0999ZM62.0999 21.1957V70.1087H63.8999V21.1957H62.0999ZM61.8869 20.6822C62.0231 20.8171 62.0999 21.0007 62.0999 21.1957H63.8999C63.8999 20.5232 63.6331 19.8785 63.154 19.4037L61.8869 20.6822ZM42.2489 1.11527L61.8852 20.6805L63.1557 19.4054L43.5194 -0.159833L42.2489 1.11527ZM41.7272 0.9C41.9247 0.9 42.112 0.978115 42.2472 1.11357L43.5211 -0.158136C43.0443 -0.635723 42.397 -0.9 41.7272 -0.9V0.9ZM5.72721 0.9H41.7272V-0.9H5.72721V0.9ZM1.71812 4.8913C1.71812 2.6947 3.51463 0.9 5.72721 0.9V-0.9C2.52669 -0.9 -0.0818847 1.69443 -0.0818847 4.8913H1.71812ZM1.71812 34.2391V4.8913H-0.0818847V34.2391H1.71812ZM4.09084 33.3391H0.818115V35.1391H4.09084V33.3391ZM3.19084 4.8913V34.2391H4.99084V4.8913H3.19084ZM5.72721 2.36087C4.33218 2.36087 3.19084 3.49059 3.19084 4.8913H4.99084C4.99084 4.49202 5.31896 4.16087 5.72721 4.16087V2.36087ZM40.9908 2.36087H5.72721V4.16087H40.9908V2.36087ZM40.9908 4.16087V4.16087V2.36087C39.9967 2.36087 39.1908 3.16676 39.1908 4.16087H40.9908ZM40.9908 21.1957V4.16087H39.1908V21.1957H40.9908ZM41.7272 21.9261C41.3173 21.9261 40.9908 21.5966 40.9908 21.1957H39.1908C39.1908 22.598 40.3305 23.7261 41.7272 23.7261V21.9261ZM59.7272 21.9261H41.7272V23.7261H59.7272V21.9261ZM60.6272 70.1087V22.8261H58.8272V70.1087H60.6272ZM58.0908 72.6391C59.4859 72.6391 60.6272 71.5094 60.6272 70.1087H58.8272C58.8272 70.508 58.4991 70.8391 58.0908 70.8391V72.6391ZM5.72721 72.6391H58.0908V70.8391H5.72721V72.6391ZM3.19084 70.1087C3.19084 71.5094 4.33219 72.6391 5.72721 72.6391V70.8391C5.31895 70.8391 4.99084 70.508 4.99084 70.1087H3.19084ZM3.19084 55.8043V70.1087H4.99084V55.8043H3.19084ZM0.818115 56.7043H4.09084V54.9043H0.818115V56.7043ZM1.71812 70.1087V55.8043H-0.0818847V70.1087H1.71812ZM5.72721 74.1C3.51463 74.1 1.71812 72.3053 1.71812 70.1087H-0.0818847C-0.0818847 73.3056 2.52669 75.9 5.72721 75.9V74.1ZM58.0486 18.9277L43.9988 4.92876L42.7283 6.20386L56.7782 20.2028L58.0486 18.9277ZM42.4636 5.56631V19.5652H44.2636V5.56631H42.4636ZM43.3636 20.4652H57.4134V18.6652H43.3636V20.4652Z" fill="white"/>
</g>
<path fill-rule="evenodd" clip-rule="evenodd" d="M1.44444 57.0652H50.5556C51.3529 57.0652 52 56.3364 52 55.4348V34.2391C52 33.3375 51.3529 32.6087 50.5556 32.6087H1.44444C0.647111 32.6087 0 33.3375 0 34.2391V55.4348C0 56.3364 0.647111 57.0652 1.44444 57.0652Z" fill="#FF6D4A" fill-opacity="0.1"/>
<path d="M50.5556 56.1652H1.44444V57.9652H50.5556V56.1652ZM51.1 55.4348C51.1 55.9443 50.757 56.1652 50.5556 56.1652V57.9652C51.9488 57.9652 52.9 56.7285 52.9 55.4348H51.1ZM51.1 34.2391V55.4348H52.9V34.2391H51.1ZM50.5556 33.5087C50.757 33.5087 51.1 33.7296 51.1 34.2391H52.9C52.9 32.9454 51.9488 31.7087 50.5556 31.7087V33.5087ZM1.44444 33.5087H50.5556V31.7087H1.44444V33.5087ZM0.9 34.2391C0.9 33.7296 1.24299 33.5087 1.44444 33.5087V31.7087C0.051234 31.7087 -0.9 32.9454 -0.9 34.2391H0.9ZM0.9 55.4348V34.2391H-0.9V55.4348H0.9ZM1.44444 56.1652C1.24299 56.1652 0.9 55.9443 0.9 55.4348H-0.9C-0.9 56.7285 0.0512332 57.9652 1.44444 57.9652V56.1652Z" fill="white"/>
<path d="M15.4922 47.4453C15.4922 47.2656 15.5521 47.1198 15.6719 47.0078C15.7943 46.8958 15.9466 46.8398 16.1289 46.8398C16.3138 46.8398 16.4661 46.8958 16.5859 47.0078C16.7083 47.1198 16.7695 47.2656 16.7695 47.4453C16.7695 47.6224 16.7096 47.7669 16.5898 47.8789C16.4701 47.9883 16.3164 48.043 16.1289 48.043C15.944 48.043 15.7917 47.9883 15.6719 47.8789C15.5521 47.7669 15.4922 47.6224 15.4922 47.4453ZM19.0805 45.9961V48H17.9087V42.3125H20.1274C20.5545 42.3125 20.9295 42.3906 21.2524 42.5469C21.5779 42.7031 21.8279 42.9258 22.0024 43.2148C22.1769 43.5013 22.2641 43.8281 22.2641 44.1953C22.2641 44.7526 22.0727 45.1927 21.6899 45.5156C21.3097 45.8359 20.7824 45.9961 20.1079 45.9961H19.0805ZM19.0805 45.0469H20.1274C20.4373 45.0469 20.673 44.974 20.8344 44.8281C20.9985 44.6823 21.0805 44.474 21.0805 44.2031C21.0805 43.9245 20.9985 43.6992 20.8344 43.5273C20.6704 43.3555 20.4438 43.2669 20.1548 43.2617H19.0805V45.0469ZM23.1455 48V42.3125H24.8955C25.3955 42.3125 25.8421 42.4258 26.2353 42.6523C26.6311 42.8763 26.9397 43.1966 27.1611 43.6133C27.3824 44.0273 27.4931 44.4987 27.4931 45.0273V45.2891C27.4931 45.8177 27.3837 46.2878 27.165 46.6992C26.9488 47.1107 26.6429 47.4297 26.247 47.6562C25.8512 47.8828 25.4046 47.9974 24.9072 48H23.1455ZM24.3173 43.2617V47.0586H24.8837C25.3421 47.0586 25.6923 46.9089 25.9345 46.6094C26.1767 46.3099 26.3004 45.8815 26.3056 45.3242V45.0234C26.3056 44.4453 26.1858 44.0078 25.9462 43.7109C25.7067 43.4115 25.3564 43.2617 24.8955 43.2617H24.3173ZM31.8432 45.6758H29.5932V48H28.4213V42.3125H32.1244V43.2617H29.5932V44.7305H31.8432V45.6758Z" fill="#FF6D4A"/>
</g>
<defs>
<clipPath id="clip0">
<rect width="63" height="75" fill="white"/>
</clipPath>
</defs>
</svg>
