<svg width="63" height="75" viewBox="0 0 63 75" fill="none" xmlns="http://www.w3.org/2000/svg">
<g clip-path="url(#clip0)">
<g opacity="0.800951">
<path fill-rule="evenodd" clip-rule="evenodd" d="M5.72745 75H58.0911C60.7976 75 63.0002 72.8054 63.0002 70.1087V21.1957C63.0002 20.762 62.8284 20.3478 62.5207 20.0429L42.8844 0.477717C42.5784 0.171196 42.1611 0 41.7275 0H5.72745C3.02091 0 0.818359 2.19457 0.818359 4.8913V34.2391H4.09109V4.8913C4.09109 3.9913 4.82581 3.26087 5.72745 3.26087H40.9911C40.494 3.26087 40.0911 3.66381 40.0911 4.16087V21.1957C40.0911 22.0973 40.8242 22.8261 41.7275 22.8261H59.7275V70.1087C59.7275 71.0087 58.9927 71.7391 58.0911 71.7391H5.72745C4.82581 71.7391 4.09109 71.0087 4.09109 70.1087V55.8043H0.818359V70.1087C0.818359 72.8054 3.02091 75 5.72745 75ZM57.4136 19.5652L43.3638 5.56631V19.5652H57.4136Z" fill="#989898"/>
<path d="M62.5207 20.0429L61.8855 20.6805L61.8872 20.6822L62.5207 20.0429ZM42.8844 0.477717L42.2474 1.11357L42.2491 1.11527L42.8844 0.477717ZM0.818359 34.2391H-0.0816406V35.1391H0.818359V34.2391ZM4.09109 34.2391V35.1391H4.99109V34.2391H4.09109ZM59.7275 22.8261H60.6275V21.9261H59.7275V22.8261ZM4.09109 55.8043H4.99109V54.9043H4.09109V55.8043ZM0.818359 55.8043V54.9043H-0.0816406V55.8043H0.818359ZM57.4136 19.5652V20.4652H59.592L58.0489 18.9277L57.4136 19.5652ZM43.3638 5.56631L43.9991 4.92876L42.4638 3.39908V5.56631H43.3638ZM43.3638 19.5652H42.4638V20.4652H43.3638V19.5652ZM58.0911 74.1H5.72745V75.9H58.0911V74.1ZM62.1002 70.1087C62.1002 72.3053 60.3037 74.1 58.0911 74.1V75.9C61.2916 75.9 63.9002 73.3056 63.9002 70.1087H62.1002ZM62.1002 21.1957V70.1087H63.9002V21.1957H62.1002ZM61.8872 20.6822C62.0234 20.8171 62.1002 21.0007 62.1002 21.1957H63.9002C63.9002 20.5232 63.6334 19.8785 63.1543 19.4037L61.8872 20.6822ZM42.2491 1.11527L61.8855 20.6805L63.156 19.4054L43.5196 -0.159833L42.2491 1.11527ZM41.7275 0.9C41.9249 0.9 42.1122 0.978115 42.2474 1.11357L43.5213 -0.158136C43.0445 -0.635723 42.3973 -0.9 41.7275 -0.9V0.9ZM5.72745 0.9H41.7275V-0.9H5.72745V0.9ZM1.71836 4.8913C1.71836 2.6947 3.51488 0.9 5.72745 0.9V-0.9C2.52693 -0.9 -0.0816406 1.69443 -0.0816406 4.8913H1.71836ZM1.71836 34.2391V4.8913H-0.0816406V34.2391H1.71836ZM4.09109 33.3391H0.818359V35.1391H4.09109V33.3391ZM3.19109 4.8913V34.2391H4.99109V4.8913H3.19109ZM5.72745 2.36087C4.33243 2.36087 3.19109 3.49059 3.19109 4.8913H4.99109C4.99109 4.49202 5.3192 4.16087 5.72745 4.16087V2.36087ZM40.9911 2.36087H5.72745V4.16087H40.9911V2.36087ZM40.9911 4.16087V4.16087V2.36087C39.997 2.36087 39.1911 3.16676 39.1911 4.16087H40.9911ZM40.9911 21.1957V4.16087H39.1911V21.1957H40.9911ZM41.7275 21.9261C41.3176 21.9261 40.9911 21.5966 40.9911 21.1957H39.1911C39.1911 22.598 40.3308 23.7261 41.7275 23.7261V21.9261ZM59.7275 21.9261H41.7275V23.7261H59.7275V21.9261ZM60.6275 70.1087V22.8261H58.8274V70.1087H60.6275ZM58.0911 72.6391C59.4861 72.6391 60.6275 71.5094 60.6275 70.1087H58.8274C58.8274 70.508 58.4993 70.8391 58.0911 70.8391V72.6391ZM5.72745 72.6391H58.0911V70.8391H5.72745V72.6391ZM3.19109 70.1087C3.19109 71.5094 4.33243 72.6391 5.72745 72.6391V70.8391C5.3192 70.8391 4.99109 70.508 4.99109 70.1087H3.19109ZM3.19109 55.8043V70.1087H4.99109V55.8043H3.19109ZM0.818359 56.7043H4.09109V54.9043H0.818359V56.7043ZM1.71836 70.1087V55.8043H-0.0816406V70.1087H1.71836ZM5.72745 74.1C3.51488 74.1 1.71836 72.3053 1.71836 70.1087H-0.0816406C-0.0816406 73.3056 2.52693 75.9 5.72745 75.9V74.1ZM58.0489 18.9277L43.9991 4.92876L42.7286 6.20386L56.7784 20.2028L58.0489 18.9277ZM42.4638 5.56631V19.5652H44.2638V5.56631H42.4638ZM43.3638 20.4652H57.4136V18.6652H43.3638V20.4652Z" fill="white"/>
</g>
<path fill-rule="evenodd" clip-rule="evenodd" d="M1.44444 57.0652H50.5556C51.3529 57.0652 52 56.3364 52 55.4348V34.2391C52 33.3375 51.3529 32.6087 50.5556 32.6087H1.44444C0.647111 32.6087 0 33.3375 0 34.2391V55.4348C0 56.3364 0.647111 57.0652 1.44444 57.0652Z" fill="#989898" fill-opacity="0.1"/>
<path d="M50.5556 56.1652H1.44444V57.9652H50.5556V56.1652ZM51.1 55.4348C51.1 55.9443 50.757 56.1652 50.5556 56.1652V57.9652C51.9488 57.9652 52.9 56.7285 52.9 55.4348H51.1ZM51.1 34.2391V55.4348H52.9V34.2391H51.1ZM50.5556 33.5087C50.757 33.5087 51.1 33.7296 51.1 34.2391H52.9C52.9 32.9454 51.9488 31.7087 50.5556 31.7087V33.5087ZM1.44444 33.5087H50.5556V31.7087H1.44444V33.5087ZM0.9 34.2391C0.9 33.7296 1.24299 33.5087 1.44444 33.5087V31.7087C0.051234 31.7087 -0.9 32.9454 -0.9 34.2391H0.9ZM0.9 55.4348V34.2391H-0.9V55.4348H0.9ZM1.44444 56.1652C1.24299 56.1652 0.9 55.9443 0.9 55.4348H-0.9C-0.9 56.7285 0.0512332 57.9652 1.44444 57.9652V56.1652Z" fill="white"/>
<path d="M16.4922 47.4453C16.4922 47.2656 16.5521 47.1198 16.6719 47.0078C16.7943 46.8958 16.9466 46.8398 17.1289 46.8398C17.3138 46.8398 17.4661 46.8958 17.5859 47.0078C17.7083 47.1198 17.7695 47.2656 17.7695 47.4453C17.7695 47.6224 17.7096 47.7669 17.5898 47.8789C17.4701 47.9883 17.3164 48.043 17.1289 48.043C16.944 48.043 16.7917 47.9883 16.6719 47.8789C16.5521 47.7669 16.4922 47.6224 16.4922 47.4453ZM20.0805 45.9961V48H18.9087V42.3125H21.1274C21.5545 42.3125 21.9295 42.3906 22.2524 42.5469C22.5779 42.7031 22.8279 42.9258 23.0024 43.2148C23.1769 43.5013 23.2641 43.8281 23.2641 44.1953C23.2641 44.7526 23.0727 45.1927 22.6899 45.5156C22.3097 45.8359 21.7824 45.9961 21.1079 45.9961H20.0805ZM20.0805 45.0469H21.1274C21.4373 45.0469 21.673 44.974 21.8344 44.8281C21.9985 44.6823 22.0805 44.474 22.0805 44.2031C22.0805 43.9245 21.9985 43.6992 21.8344 43.5273C21.6704 43.3555 21.4438 43.2669 21.1548 43.2617H20.0805V45.0469ZM27.0947 46.5078C27.0947 46.2865 27.0165 46.1172 26.8603 46C26.704 45.8802 26.4228 45.7552 26.0165 45.625C25.6103 45.4922 25.2887 45.362 25.0517 45.2344C24.4059 44.8854 24.083 44.4154 24.083 43.8242C24.083 43.5169 24.1689 43.2435 24.3408 43.0039C24.5152 42.7617 24.7639 42.5729 25.0869 42.4375C25.4124 42.3021 25.777 42.2344 26.1806 42.2344C26.5869 42.2344 26.9488 42.3086 27.2665 42.457C27.5843 42.6029 27.8304 42.8099 28.0048 43.0781C28.1819 43.3464 28.2705 43.651 28.2705 43.9922H27.0986C27.0986 43.7318 27.0165 43.5299 26.8525 43.3867C26.6884 43.2409 26.458 43.168 26.1611 43.168C25.8746 43.168 25.652 43.2292 25.4931 43.3516C25.3343 43.4714 25.2548 43.6302 25.2548 43.8281C25.2548 44.013 25.3473 44.168 25.5322 44.293C25.7197 44.418 25.9944 44.5352 26.3564 44.6445C27.0231 44.8451 27.5087 45.0938 27.8134 45.3906C28.1181 45.6875 28.2705 46.0573 28.2705 46.5C28.2705 46.9922 28.0843 47.3789 27.7119 47.6602C27.3395 47.9388 26.8382 48.0781 26.208 48.0781C25.7705 48.0781 25.372 47.9987 25.0126 47.8398C24.6533 47.6784 24.3785 47.4583 24.1884 47.1797C24.0009 46.901 23.9072 46.5781 23.9072 46.2109H25.083C25.083 46.8385 25.458 47.1523 26.208 47.1523C26.4866 47.1523 26.704 47.0964 26.8603 46.9844C27.0165 46.8698 27.0947 46.7109 27.0947 46.5078ZM29.1401 48V42.3125H30.8901C31.3901 42.3125 31.8367 42.4258 32.2299 42.6523C32.6257 42.8763 32.9343 43.1966 33.1557 43.6133C33.377 44.0273 33.4877 44.4987 33.4877 45.0273V45.2891C33.4877 45.8177 33.3783 46.2878 33.1596 46.6992C32.9434 47.1107 32.6375 47.4297 32.2416 47.6562C31.8458 47.8828 31.3992 47.9974 30.9018 48H29.1401ZM30.3119 43.2617V47.0586H30.8783C31.3367 47.0586 31.6869 46.9089 31.9291 46.6094C32.1713 46.3099 32.295 45.8815 32.3002 45.3242V45.0234C32.3002 44.4453 32.1804 44.0078 31.9408 43.7109C31.7013 43.4115 31.351 43.2617 30.8901 43.2617H30.3119Z" fill="#989898"/>
</g>
<defs>
<clipPath id="clip0">
<rect width="63" height="75" fill="white"/>
</clipPath>
</defs>
</svg>
