<svg width="55" height="55" viewBox="0 0 55 55" fill="none" xmlns="http://www.w3.org/2000/svg">
<rect width="55" height="55" rx="4" fill="#EAF4FF"/>
<path fill-rule="evenodd" clip-rule="evenodd" d="M31.8492 18.2216C31.9782 18.4308 32.0976 18.6452 32.2096 18.8621C32.2286 18.895 32.2458 18.9285 32.2605 18.962C32.8263 20.0946 33.1629 21.3467 33.2414 22.6045L33.3021 22.6631L33.2552 23.0384L33.1742 24.6378C34.6344 26.1482 35.4932 28.1788 35.5444 30.2672C35.5619 30.9887 35.4871 31.7069 35.3203 32.4003C35.2692 32.6096 35.1661 32.7965 35.0218 32.9459C34.9113 33.0604 34.7806 33.1494 34.6329 33.2122C34.2838 33.3585 33.8824 33.3323 33.557 33.1424L32.2365 32.3822L32.0615 32.7824C31.6867 33.6411 30.8016 34.221 29.8684 34.2299L26.6533 34.2627C25.698 34.272 24.8098 33.7212 24.3889 32.8592L24.1963 32.4641L22.9109 33.252C22.5903 33.4464 22.1918 33.4798 21.8433 33.3426C21.491 33.203 21.2195 32.9047 21.1143 32.5443C20.9128 31.8543 20.8014 31.1387 20.7838 30.416C20.7314 28.3313 21.4906 26.2798 22.873 24.7419L22.7062 23.0399C22.6748 21.6619 22.9543 20.2749 23.5148 19.0274C23.5153 19.0231 23.5295 18.9896 23.5497 18.9512C23.6504 18.7305 23.7604 18.514 23.8796 18.3017C24.6584 16.9145 25.8091 15.7317 27.1782 14.9147C27.5452 14.6961 28.0062 14.6918 28.3831 14.9022C29.7976 15.6941 30.9963 16.842 31.8492 18.2216ZM33.5992 31.5818C33.6652 31.1743 33.9798 30.7021 33.97 30.2829C33.9409 29.1091 33.5919 27.9611 32.9891 26.9584L32.7721 30.7988C32.7713 30.8259 32.7582 30.8495 32.7537 30.8754L33.5992 31.5818ZM22.3582 30.4002C22.3686 30.8187 22.4176 31.2347 22.504 31.6421L23.7431 30.5242L23.0748 27.4616C22.5268 28.4734 22.3292 29.2337 22.3582 30.4002ZM27.8181 16.3822C26.7587 17.0549 25.8689 17.9952 25.2559 19.088C25.1533 19.2693 25.0606 19.4542 24.9747 19.642L24.9504 19.691C24.4935 20.7122 24.2619 21.8482 24.2798 22.9786L24.2834 23.0449L24.4759 24.9531L25.2802 31.1177L25.803 32.1858C25.9535 32.4943 26.2717 32.6917 26.6141 32.6887L29.8298 32.6554C30.1637 32.6526 30.4828 32.4423 30.6164 32.1362L31.204 30.7844C31.2015 30.7518 31.1985 30.7199 31.1998 30.6873L31.4979 25.3962C31.5041 25.2947 31.5301 25.1989 31.571 25.1127L31.68 22.9023C31.6431 21.7753 31.3547 20.6447 30.8439 19.6305L30.8209 19.5842C30.7254 19.3977 30.6226 19.2138 30.5125 19.035C29.8406 17.9486 28.9122 17.0351 27.8181 16.3822ZM29.7994 24.3265C28.8011 25.3603 27.1352 25.3771 26.0858 24.3637C25.0364 23.3503 24.995 21.6848 25.9933 20.651C26.9922 19.6166 28.6582 19.5998 29.7076 20.6132C30.757 21.6266 30.7983 23.2921 29.7994 24.3265ZM27.1346 21.7532C26.7354 22.1666 26.7514 22.8334 27.1717 23.2392C27.5919 23.6451 28.2589 23.6377 28.6581 23.2244C29.0579 22.8103 29.042 22.1435 28.6217 21.7377C28.2014 21.3318 27.5344 21.3392 27.1346 21.7532ZM25.7176 35.7147C26.1523 35.7102 26.5137 36.0593 26.5244 36.4938L26.5777 38.67C26.584 38.8876 26.5008 39.0852 26.3619 39.229C26.2229 39.3728 26.0284 39.4629 25.8101 39.4649C25.3755 39.4694 25.0147 39.1209 25.0034 38.6858L24.95 36.5096C24.9388 36.0745 25.2824 35.7186 25.7176 35.7147ZM27.3605 36.2449C27.3499 35.8104 27.6935 35.4546 28.1281 35.4501C28.5634 35.4461 28.9242 35.7946 28.9349 36.2291L29.052 40.9627C29.0576 41.1796 28.9743 41.3772 28.8354 41.521C28.6959 41.6655 28.5014 41.7556 28.2844 41.7575C27.8491 41.7614 27.4883 41.413 27.4776 40.9784L27.3605 36.2449ZM29.9763 36.2896C29.965 35.8545 30.3099 35.4987 30.7439 35.4948C31.1785 35.4903 31.54 35.8393 31.5506 36.2738L31.594 38.0537C31.5996 38.2706 31.5164 38.4682 31.3775 38.6121C31.2386 38.7559 31.044 38.846 30.8264 38.8486C30.3918 38.8531 30.0303 38.504 30.0196 38.0695L29.9763 36.2896Z" fill="#4DA1FF"/>
<path d="M32.2096 18.8621L32.0761 18.931L32.0797 18.9372L32.2096 18.8621ZM32.2605 18.962L32.123 19.0224L32.1263 19.0291L32.2605 18.962ZM33.2414 22.6045L33.0917 22.6139L33.0954 22.672L33.1372 22.7124L33.2414 22.6045ZM33.3021 22.6631L33.4509 22.6817L33.4602 22.6073L33.4063 22.5552L33.3021 22.6631ZM33.1742 24.6378L33.0244 24.6302L33.0211 24.6952L33.0664 24.742L33.1742 24.6378ZM35.5444 30.2672L35.6943 30.2635L35.6943 30.2635L35.5444 30.2672ZM35.3203 32.4003L35.466 32.4358L35.4661 32.4354L35.3203 32.4003ZM34.6329 33.2122L34.6909 33.3506L34.6916 33.3502L34.6329 33.2122ZM33.557 33.1424L33.6325 33.0129L33.6318 33.0125L33.557 33.1424ZM32.2365 32.3822L32.3114 32.2522L32.1662 32.1686L32.0991 32.3221L32.2365 32.3822ZM32.0615 32.7824L31.9241 32.7223L31.924 32.7224L32.0615 32.7824ZM29.8684 34.2299L29.867 34.0799L29.8669 34.0799L29.8684 34.2299ZM26.6533 34.2627L26.6548 34.4127L26.6548 34.4127L26.6533 34.2627ZM24.3889 32.8592L24.2541 32.9249L24.2541 32.925L24.3889 32.8592ZM24.1963 32.4641L24.3312 32.3984L24.2588 32.2499L24.1179 32.3362L24.1963 32.4641ZM22.9109 33.252L22.9887 33.3803L22.9893 33.3799L22.9109 33.252ZM21.8433 33.3426L21.788 33.4821L21.7883 33.4822L21.8433 33.3426ZM21.1143 32.5443L20.9703 32.5864L20.9703 32.5864L21.1143 32.5443ZM20.7838 30.416L20.9338 30.4123L20.9338 30.4122L20.7838 30.416ZM22.873 24.7419L22.9846 24.8422L23.0288 24.7931L23.0223 24.7273L22.873 24.7419ZM22.7062 23.0399L22.5558 23.0433L22.5569 23.0545L22.7062 23.0399ZM23.5148 19.0274L23.6516 19.0889L23.6608 19.0683L23.6636 19.046L23.5148 19.0274ZM23.5497 18.9512L23.6827 19.0211L23.6862 19.0134L23.5497 18.9512ZM23.8796 18.3017L24.0104 18.3751L24.0104 18.3751L23.8796 18.3017ZM27.1782 14.9147L27.1015 14.7858L27.1013 14.7859L27.1782 14.9147ZM28.3831 14.9022L28.4564 14.7714L28.4562 14.7713L28.3831 14.9022ZM33.97 30.2829L34.12 30.2795L34.12 30.2792L33.97 30.2829ZM32.9891 26.9584L33.1177 26.8811L32.8668 26.4638L32.8393 26.9499L32.9891 26.9584ZM32.7721 30.7988L32.6223 30.7903L32.6221 30.7946L32.7721 30.7988ZM32.7537 30.8754L32.6059 30.8499L32.5912 30.9351L32.6576 30.9905L32.7537 30.8754ZM22.504 31.6421L22.3573 31.6732L22.4113 31.9278L22.6045 31.7535L22.504 31.6421ZM23.7431 30.5242L23.8436 30.6355L23.9082 30.5772L23.8897 30.4922L23.7431 30.5242ZM23.0748 27.4616L23.2214 27.4296L23.1353 27.035L22.9429 27.3902L23.0748 27.4616ZM25.2559 19.088L25.3864 19.1619L25.3867 19.1614L25.2559 19.088ZM24.9747 19.642L25.1091 19.7088L25.1111 19.7044L24.9747 19.642ZM24.9504 19.691L24.8159 19.6242L24.8134 19.6297L24.9504 19.691ZM24.2798 22.9786L24.1297 22.981L24.13 22.9868L24.2798 22.9786ZM24.2834 23.0449L24.1334 23.0531L24.1341 23.06L24.2834 23.0449ZM24.4759 24.9531L24.3266 24.9682L24.3272 24.9725L24.4759 24.9531ZM25.2802 31.1177L25.1314 31.1371L25.1346 31.1616L25.1454 31.1837L25.2802 31.1177ZM25.803 32.1858L25.9378 32.1201L25.9377 32.1199L25.803 32.1858ZM26.6141 32.6887L26.6154 32.8387L26.6157 32.8387L26.6141 32.6887ZM29.8298 32.6554L29.8286 32.5054L29.8283 32.5054L29.8298 32.6554ZM30.6164 32.1362L30.7539 32.1962L30.754 32.196L30.6164 32.1362ZM31.204 30.7844L31.3415 30.8442L31.3563 30.8102L31.3535 30.7733L31.204 30.7844ZM31.1998 30.6873L31.05 30.6789L31.0499 30.6814L31.1998 30.6873ZM31.4979 25.3962L31.3482 25.3871L31.3481 25.3878L31.4979 25.3962ZM31.571 25.1127L31.7065 25.1771L31.7194 25.15L31.7208 25.1201L31.571 25.1127ZM31.68 22.9023L31.8303 22.9097L31.8299 22.8974L31.68 22.9023ZM30.8439 19.6305L30.7094 19.6971L30.7099 19.698L30.8439 19.6305ZM30.8209 19.5842L30.9554 19.5176L30.9544 19.5158L30.8209 19.5842ZM30.5125 19.035L30.6403 18.9563L30.6401 18.9561L30.5125 19.035ZM26.5244 36.4938L26.6743 36.4901L26.6743 36.4901L26.5244 36.4938ZM26.5777 38.67L26.4278 38.6737L26.4278 38.6743L26.5777 38.67ZM25.8101 39.4649L25.8088 39.3149L25.8086 39.3149L25.8101 39.4649ZM25.0034 38.6858L24.8534 38.6895L24.8534 38.6897L25.0034 38.6858ZM24.95 36.5096L25.1 36.5059L25.1 36.5057L24.95 36.5096ZM28.1281 35.4501L28.1268 35.3001L28.1266 35.3001L28.1281 35.4501ZM28.9349 36.2291L28.7849 36.2328L28.7849 36.2328L28.9349 36.2291ZM29.052 40.9627L28.902 40.9664L28.902 40.9665L29.052 40.9627ZM28.2844 41.7575L28.283 41.6075L28.283 41.6075L28.2844 41.7575ZM27.4776 40.9784L27.6276 40.9748L27.6276 40.9747L27.4776 40.9784ZM30.7439 35.4948L30.7452 35.6448L30.7454 35.6448L30.7439 35.4948ZM31.5506 36.2738L31.7006 36.2702L31.7006 36.2702L31.5506 36.2738ZM31.594 38.0537L31.444 38.0573L31.444 38.0576L31.594 38.0537ZM30.8264 38.8486L30.828 38.9986L30.8282 38.9986L30.8264 38.8486ZM30.0196 38.0695L29.8697 38.0731L29.8697 38.0732L30.0196 38.0695ZM31.7215 18.3003C31.8482 18.5058 31.9657 18.7168 32.0763 18.9309L32.3429 18.7933C32.2294 18.5736 32.1082 18.3558 31.9768 18.1428L31.7215 18.3003ZM32.0797 18.9372C32.0963 18.9658 32.1109 18.9944 32.1231 19.0223L32.3979 18.9018C32.3807 18.8626 32.3609 18.8241 32.3394 18.787L32.0797 18.9372ZM32.1263 19.0291C32.6831 20.1436 33.0145 21.3761 33.0917 22.6139L33.3911 22.5952C33.3114 21.3172 32.9694 20.0455 32.3947 18.895L32.1263 19.0291ZM33.1372 22.7124L33.1979 22.771L33.4063 22.5552L33.3456 22.4966L33.1372 22.7124ZM33.1533 22.6445L33.1063 23.0197L33.404 23.057L33.4509 22.6817L33.1533 22.6445ZM33.1053 23.0308L33.0244 24.6302L33.3241 24.6453L33.405 23.0459L33.1053 23.0308ZM33.0664 24.742C34.5008 26.2257 35.3441 28.2206 35.3944 30.2708L35.6943 30.2635C35.6422 28.137 34.7681 26.0706 33.2821 24.5335L33.0664 24.742ZM35.3944 30.2708C35.4116 30.9796 35.3382 31.6848 35.1745 32.3652L35.4661 32.4354C35.6361 31.729 35.7122 30.9978 35.6943 30.2635L35.3944 30.2708ZM35.1746 32.3647C35.1297 32.5487 35.0395 32.7117 34.9139 32.8418L35.1297 33.0501C35.2928 32.8812 35.4088 32.6706 35.466 32.4358L35.1746 32.3647ZM34.9139 32.8418C34.8177 32.9413 34.7039 33.019 34.5742 33.0742L34.6916 33.3502C34.8573 33.2798 35.0048 33.1795 35.1297 33.0501L34.9139 32.8418ZM34.575 33.0739C34.2691 33.202 33.9172 33.1789 33.6325 33.0129L33.4814 33.272C33.8477 33.4857 34.2985 33.515 34.6909 33.3506L34.575 33.0739ZM33.6318 33.0125L32.3114 32.2522L32.1617 32.5122L33.4821 33.2724L33.6318 33.0125ZM32.0991 32.3221L31.9241 32.7223L32.1989 32.8425L32.3739 32.4423L32.0991 32.3221ZM31.924 32.7224C31.573 33.5265 30.7415 34.0716 29.867 34.0799L29.8698 34.3799C30.8617 34.3705 31.8003 33.7558 32.199 32.8424L31.924 32.7224ZM29.8669 34.0799L26.6518 34.1127L26.6548 34.4127L29.8699 34.3799L29.8669 34.0799ZM26.6518 34.1127C25.7547 34.1214 24.9193 33.6037 24.5237 32.7934L24.2541 32.925C24.7002 33.8387 25.6412 34.4226 26.6548 34.4127L26.6518 34.1127ZM24.5237 32.7934L24.3312 32.3984L24.0615 32.5298L24.2541 32.9249L24.5237 32.7934ZM24.1179 32.3362L22.8325 33.1241L22.9893 33.3799L24.2747 32.592L24.1179 32.3362ZM22.8331 33.1238C22.5527 33.2938 22.2033 33.3231 21.8982 33.203L21.7883 33.4822C22.1803 33.6365 22.6279 33.599 22.9887 33.3803L22.8331 33.1238ZM21.8985 33.2032C21.5891 33.0806 21.3505 32.818 21.2582 32.5023L20.9703 32.5864C21.0886 32.9913 21.3928 33.3255 21.788 33.4821L21.8985 33.2032ZM21.2582 32.5023C21.0605 31.8248 20.951 31.1221 20.9338 30.4123L20.6339 30.4196C20.6517 31.1554 20.7652 31.8839 20.9703 32.5864L21.2582 32.5023ZM20.9338 30.4122C20.8824 28.3658 21.6279 26.3516 22.9846 24.8422L22.7615 24.6417C21.3534 26.2081 20.5805 28.2968 20.6339 30.4197L20.9338 30.4122ZM23.0223 24.7273L22.8555 23.0252L22.5569 23.0545L22.7237 24.7566L23.0223 24.7273ZM22.8562 23.0365C22.8252 21.6807 23.1004 20.3158 23.6516 19.0889L23.378 18.9659C22.8082 20.2339 22.5243 21.6432 22.5562 23.0433L22.8562 23.0365ZM23.6636 19.046C23.6628 19.0524 23.6618 19.0574 23.6612 19.06C23.6605 19.063 23.6599 19.0654 23.6594 19.0669C23.6586 19.0699 23.6579 19.0721 23.6576 19.0729C23.657 19.0746 23.6567 19.0753 23.6571 19.0743C23.6578 19.0726 23.6593 19.0689 23.6618 19.0634C23.6667 19.0525 23.6739 19.0373 23.6825 19.021L23.417 18.8813C23.4053 18.9035 23.3954 18.9243 23.388 18.9408C23.3843 18.9489 23.3809 18.9568 23.3782 18.9638C23.3768 18.9672 23.3752 18.9715 23.3737 18.976C23.3729 18.9783 23.3718 18.9816 23.3707 18.9856C23.37 18.9881 23.3674 18.9971 23.3659 19.0088L23.6636 19.046ZM23.6862 19.0134C23.7851 18.7966 23.8932 18.5838 24.0104 18.3751L23.7489 18.2282C23.6275 18.4442 23.5157 18.6644 23.4133 18.8889L23.6862 19.0134ZM24.0104 18.3751C24.7764 17.0107 25.9085 15.8471 27.2551 15.0435L27.1013 14.7859C25.7097 15.6164 24.5404 16.8182 23.7488 18.2282L24.0104 18.3751ZM27.255 15.0435C27.5751 14.8529 27.9791 14.8484 28.31 15.0332L28.4562 14.7713C28.0334 14.5351 27.5152 14.5394 27.1015 14.7858L27.255 15.0435ZM28.3098 15.0331C29.702 15.8125 30.8821 16.9425 31.7216 18.3004L31.9767 18.1427C31.1105 16.7414 29.8931 15.5756 28.4564 14.7714L28.3098 15.0331ZM33.7473 31.6058C33.777 31.4221 33.8632 31.2226 33.9529 30.9909C34.0379 30.7713 34.1256 30.5226 34.12 30.2795L33.8201 30.2864C33.8242 30.4625 33.7595 30.6594 33.6731 30.8826C33.5915 31.0936 33.4874 31.334 33.4511 31.5578L33.7473 31.6058ZM34.12 30.2792C34.0902 29.0782 33.7332 27.905 33.1177 26.8811L32.8605 27.0356C33.4506 28.0172 33.7916 29.14 33.8201 30.2867L34.12 30.2792ZM32.8393 26.9499L32.6223 30.7903L32.9218 30.8073L33.1389 26.9668L32.8393 26.9499ZM32.6221 30.7946C32.6224 30.7861 32.6245 30.7821 32.6212 30.7926C32.6204 30.7952 32.6197 30.7973 32.6184 30.8012C32.6174 30.8045 32.616 30.8088 32.6146 30.8135C32.6119 30.8227 32.6084 30.8353 32.6059 30.8499L32.9016 30.9009C32.9013 30.9025 32.9011 30.9024 32.9021 30.8991C32.9037 30.8939 32.9042 30.8927 32.9074 30.8825C32.912 30.8679 32.921 30.8386 32.922 30.803L32.6221 30.7946ZM32.6576 30.9905L33.503 31.6969L33.6954 31.4667L32.8499 30.7603L32.6576 30.9905ZM22.2082 30.4039C22.2188 30.8317 22.269 31.2568 22.3573 31.6732L22.6508 31.6109C22.5663 31.2126 22.5183 30.8057 22.5081 30.3965L22.2082 30.4039ZM22.6045 31.7535L23.8436 30.6355L23.6427 30.4128L22.4036 31.5307L22.6045 31.7535ZM23.8897 30.4922L23.2214 27.4296L22.9283 27.4936L23.5966 30.5562L23.8897 30.4922ZM22.9429 27.3902C22.3831 28.4238 22.1786 29.2099 22.2082 30.4039L22.5081 30.3964C22.4798 29.2575 22.6706 28.523 23.2067 27.533L22.9429 27.3902ZM27.7377 16.2556C26.6574 16.9416 25.7502 17.9001 25.125 19.0146L25.3867 19.1614C25.9875 18.0902 26.8601 17.1682 27.8985 16.5088L27.7377 16.2556ZM25.1253 19.0141C25.0203 19.1998 24.9257 19.3885 24.8383 19.5796L25.1111 19.7044C25.1955 19.5198 25.2863 19.3389 25.3864 19.1619L25.1253 19.0141ZM24.8404 19.5752L24.816 19.6242L25.0847 19.7577L25.109 19.7087L24.8404 19.5752ZM24.8134 19.6297C24.3476 20.6712 24.1116 21.8289 24.1298 22.981L24.4297 22.9762C24.4122 21.8675 24.6395 20.7532 25.0873 19.7522L24.8134 19.6297ZM24.13 22.9868L24.1336 23.0531L24.4332 23.0368L24.4295 22.9704L24.13 22.9868ZM24.1341 23.06L24.3267 24.9682L24.6252 24.9381L24.4326 23.0299L24.1341 23.06ZM24.3272 24.9725L25.1314 31.1371L25.4289 31.0983L24.6247 24.9337L24.3272 24.9725ZM25.1454 31.1837L25.6683 32.2518L25.9377 32.1199L25.4149 31.0518L25.1454 31.1837ZM25.6682 32.2516C25.8439 32.6119 26.215 32.8421 26.6154 32.8387L26.6129 32.5388C26.3284 32.5412 26.063 32.3768 25.9378 32.1201L25.6682 32.2516ZM26.6157 32.8387L29.8314 32.8054L29.8283 32.5054L26.6126 32.5388L26.6157 32.8387ZM29.8311 32.8054C30.224 32.8021 30.5965 32.5567 30.7539 32.1962L30.4789 32.0762C30.369 32.3279 30.1034 32.5031 29.8286 32.5054L29.8311 32.8054ZM30.754 32.196L31.3415 30.8442L31.0664 30.7246L30.4788 32.0764L30.754 32.196ZM31.3535 30.7733C31.3508 30.7362 31.3488 30.7151 31.3497 30.6932L31.0499 30.6814C31.0482 30.7248 31.0523 30.7674 31.0544 30.7955L31.3535 30.7733ZM31.3496 30.6957L31.6476 25.4047L31.3481 25.3878L31.05 30.6789L31.3496 30.6957ZM31.6476 25.4054C31.6526 25.3237 31.6735 25.2466 31.7065 25.1771L31.4355 25.0484C31.3867 25.1513 31.3556 25.2657 31.3482 25.3871L31.6476 25.4054ZM31.7208 25.1201L31.8298 22.9097L31.5302 22.8949L31.4212 25.1054L31.7208 25.1201ZM31.8299 22.8974C31.7923 21.7485 31.4984 20.5966 30.9778 19.563L30.7099 19.698C31.211 20.6928 31.4939 21.8021 31.5301 22.9072L31.8299 22.8974ZM30.9783 19.564L30.9553 19.5176L30.6865 19.6508L30.7095 19.6971L30.9783 19.564ZM30.9544 19.5158C30.8573 19.3261 30.7526 19.1388 30.6403 18.9563L30.3848 19.1136C30.4927 19.2889 30.5936 19.4693 30.6874 19.6526L30.9544 19.5158ZM30.6401 18.9561C29.9555 17.8492 29.0097 16.9187 27.8949 16.2534L27.7412 16.511C28.8147 17.1516 29.7257 18.0479 30.385 19.1139L30.6401 18.9561ZM29.6915 24.2223C28.7522 25.195 27.1813 25.2131 26.19 24.2558L25.9816 24.4716C27.0891 25.5411 28.85 25.5256 29.9073 24.4307L29.6915 24.2223ZM26.19 24.2558C25.1986 23.2985 25.1619 21.7279 26.1012 20.7552L25.8854 20.5468C24.8281 21.6417 24.8741 23.4021 25.9816 24.4716L26.19 24.2558ZM26.1012 20.7552C27.0411 19.7819 28.6121 19.7638 29.6034 20.7211L29.8118 20.5053C28.7043 19.4358 26.9433 19.4513 25.8854 20.5468L26.1012 20.7552ZM29.6034 20.7211C30.5947 21.6784 30.6315 23.249 29.6915 24.2223L29.9073 24.4307C30.9652 23.3353 30.9193 21.5748 29.8118 20.5053L29.6034 20.7211ZM27.0267 21.649C26.5686 22.1234 26.5891 22.8851 27.0675 23.3471L27.2758 23.1313C26.9137 22.7816 26.9023 22.2097 27.2425 21.8574L27.0267 21.649ZM27.0675 23.3471C27.5458 23.8091 28.3079 23.803 28.766 23.3286L28.5502 23.1202C28.2099 23.4725 27.638 23.481 27.2758 23.1313L27.0675 23.3471ZM28.766 23.3286C29.2247 22.8536 29.2043 22.0918 28.7259 21.6298L28.5175 21.8456C28.8796 22.1952 28.8911 22.7671 28.5502 23.1202L28.766 23.3286ZM28.7259 21.6298C28.2474 21.1677 27.4854 21.174 27.0267 21.649L27.2425 21.8574C27.5835 21.5043 28.1554 21.4959 28.5175 21.8456L28.7259 21.6298ZM25.7192 35.8647C26.0718 35.861 26.3658 36.1449 26.3744 36.4975L26.6743 36.4901C26.6617 35.9736 26.2327 35.5593 25.7161 35.5647L25.7192 35.8647ZM26.3744 36.4975L26.4278 38.6737L26.7277 38.6663L26.6743 36.4901L26.3744 36.4975ZM26.4278 38.6743C26.4329 38.85 26.3659 39.0089 26.254 39.1248L26.4698 39.3332C26.6356 39.1614 26.7351 38.9251 26.7277 38.6657L26.4278 38.6743ZM26.254 39.1248C26.1421 39.2406 25.9855 39.3133 25.8088 39.3149L25.8115 39.6149C26.0712 39.6126 26.3038 39.505 26.4698 39.3332L26.254 39.1248ZM25.8086 39.3149C25.4561 39.3186 25.1625 39.0353 25.1533 38.6819L24.8534 38.6897C24.8668 39.2065 25.295 39.6203 25.8117 39.6149L25.8086 39.3149ZM25.1533 38.6821L25.1 36.5059L24.8001 36.5132L24.8534 38.6895L25.1533 38.6821ZM25.1 36.5057C25.0909 36.1544 25.3676 35.8678 25.719 35.8647L25.7163 35.5647C25.1972 35.5694 24.7866 35.9945 24.8001 36.5135L25.1 36.5057ZM27.5105 36.2412C27.5019 35.8904 27.7787 35.6037 28.1297 35.6L28.1266 35.3001C27.6083 35.3054 27.1979 35.7304 27.2106 36.2486L27.5105 36.2412ZM28.1295 35.6C28.483 35.5969 28.7763 35.8804 28.7849 36.2328L29.0849 36.2254C29.0722 35.7088 28.6438 35.2954 28.1268 35.3001L28.1295 35.6ZM28.7849 36.2328L28.902 40.9664L29.2019 40.9589L29.0849 36.2254L28.7849 36.2328ZM28.902 40.9665C28.9066 41.1419 28.8395 41.3009 28.7275 41.4168L28.9433 41.6252C29.1092 41.4535 29.2086 41.2173 29.2019 40.9588L28.902 40.9665ZM28.7275 41.4168C28.6149 41.5334 28.4583 41.606 28.283 41.6075L28.2857 41.9075C28.5444 41.9052 28.7769 41.7975 28.9433 41.6252L28.7275 41.4168ZM28.283 41.6075C27.9295 41.6107 27.6362 41.3272 27.6276 40.9748L27.3276 40.9821C27.3403 41.4987 27.7687 41.9122 28.2857 41.9075L28.283 41.6075ZM27.6276 40.9747L27.5105 36.2412L27.2106 36.2486L27.3276 40.9822L27.6276 40.9747ZM30.1262 36.2858C30.1171 35.9346 30.3949 35.6479 30.7452 35.6448L30.7425 35.3448C30.2248 35.3494 29.8129 35.7745 29.8263 36.2935L30.1262 36.2858ZM30.7454 35.6448C31.098 35.6411 31.392 35.925 31.4007 36.2775L31.7006 36.2702C31.6879 35.7537 31.259 35.3394 30.7423 35.3448L30.7454 35.6448ZM31.4007 36.2775L31.444 38.0573L31.744 38.05L31.7006 36.2702L31.4007 36.2775ZM31.444 38.0576C31.4486 38.2329 31.3815 38.3919 31.2696 38.5079L31.4854 38.7163C31.6512 38.5445 31.7507 38.3084 31.7439 38.0498L31.444 38.0576ZM31.2696 38.5079C31.1577 38.6237 31.001 38.6965 30.8246 38.6986L30.8282 38.9986C31.087 38.9955 31.3195 38.8881 31.4854 38.7163L31.2696 38.5079ZM30.8248 38.6986C30.4722 38.7022 30.1782 38.4183 30.1696 38.0658L29.8697 38.0732C29.8824 38.5897 30.3113 39.0039 30.828 38.9986L30.8248 38.6986ZM30.1696 38.0658L30.1262 36.286L29.8263 36.2933L29.8697 38.0731L30.1696 38.0658Z" fill="white"/>
</svg>
