<?xml version="1.0" encoding="utf-8"?>
<svg width="25px" height="23px" viewBox="0 0 25 23" version="1.1" xmlns:xlink="http://www.w3.org/1999/xlink" xmlns="http://www.w3.org/2000/svg">
  <desc>Created with Lunacy</desc>
  <g id="sessions-icon" transform="translate(0.5 0.5)">
    <path d="M7.58091 18.9738C7.34355 18.9738 7.13069 18.81 7.08118 18.5719C7.02503 18.3002 7.20267 18.035 7.47882 17.9797C9.78913 17.5141 10.956 16.3056 11.7268 15.4226C11.1852 14.5622 9.96421 13.1658 8.2445 12.5826C6.26139 11.9106 5.83568 11.6544 5.83568 10.4595C5.83568 10.2364 5.98473 10.0405 6.20167 9.97775C6.5253 9.88383 6.92907 9.88131 7.39664 9.8788C8.0929 9.87478 8.95913 9.86976 9.24243 9.49857C9.48234 9.18313 9.38179 8.9576 8.88103 8.20266C8.75852 8.01781 8.62938 7.82192 8.50534 7.61196C7.54008 5.9745 7.46759 5.24969 7.38337 4.41036L7.36703 4.24561C7.15673 2.23595 6.06691 1.14598 4.12822 1.00584C2.43352 1.12789 1.38352 1.98229 1.00732 3.54492C0.942491 3.81515 0.666847 3.98141 0.392734 3.91762C0.118622 3.85383 -0.0513585 3.58309 0.0139793 3.31336C0.493804 1.31977 1.94298 0.142902 4.09402 0.000753436C4.11648 -0.000251145 4.13945 -0.000251145 4.16242 0.000753436C6.62177 0.163998 8.12046 1.6342 8.38232 4.14264L8.39968 4.31191C8.47778 5.09398 8.53444 5.65906 9.38842 7.10766C9.50276 7.30205 9.62272 7.48237 9.73604 7.65365C10.2133 8.37344 10.7544 9.18916 10.0586 10.1008C9.47162 10.8713 8.32464 10.8779 7.40276 10.8834C7.24095 10.8844 7.0771 10.8849 6.92907 10.8909C7.06434 11.1014 7.45483 11.2531 8.5768 11.6333C10.8075 12.3887 12.2817 14.2613 12.8013 15.2488C12.8962 15.4301 12.8707 15.6506 12.7365 15.8053L12.6589 15.8952C11.8508 16.8305 10.4981 18.3972 7.68402 18.9632C7.64931 18.9703 7.6146 18.9738 7.58091 18.9738" transform="translate(10.62305 -1.144409E-05)" id="Fill-6" fill="#007AFF" stroke="none" />
    <path d="M9.26318 8.54674C4.14641 8.54674 0.553855 7.79832 0.403271 7.76618C0.159276 7.71494 -0.0107047 7.49695 0.000525188 7.25133C0.197559 3.18428 2.77126 1.92202 4.69055 1.3258C6.12186 0.881278 6.89417 0.151449 6.90183 0.143915C7.10295 -0.0499692 7.42555 -0.0469554 7.6231 0.150947C7.81962 0.348347 7.8186 0.66479 7.6185 0.859177C7.58124 0.895844 6.67927 1.76129 4.99785 2.28367C3.20514 2.84071 1.35424 3.82571 1.05257 6.86607C2.15616 7.06247 5.26481 7.54215 9.26318 7.54215C13.2615 7.54215 16.3702 7.06247 17.4738 6.86607C17.1716 3.82571 15.3212 2.84071 13.5285 2.28418C11.8466 1.76129 10.9451 0.895844 10.9073 0.859177C10.7072 0.664288 10.7057 0.345836 10.9038 0.148436C11.1013 -0.04796 11.4239 -0.0494669 11.6245 0.143915C11.6455 0.164007 12.4162 0.884794 13.8358 1.32631C15.7546 1.92202 18.3288 3.18378 18.5258 7.25133C18.5371 7.49695 18.3671 7.71494 18.1231 7.76618C17.9725 7.79832 14.3794 8.54674 9.26318 8.54674" transform="translate(0 12.75063)" id="Fill-3" fill="#007AFF" stroke="none" />
    <path d="M0.941991 7.98843C1.28246 8.89758 2.76737 11.7692 5.22162 11.7692C7.67536 11.7692 9.15975 8.89808 9.50124 7.98843C9.51349 7.9809 9.52574 7.97386 9.53748 7.96583C9.69164 7.8719 9.80292 7.80459 9.87949 7.67048C10.4379 6.69905 10.5819 5.91347 10.3083 5.33784C10.1863 5.08117 10.0076 4.91642 9.84171 4.81144C9.83916 4.3855 9.80241 3.63257 9.60435 2.89922C9.33024 1.89615 8.06075 0 5.22162 0C2.38249 0 1.11299 1.89615 0.837859 2.90123C0.640825 3.63307 0.604072 4.386 0.60152 4.81144C0.435113 4.91642 0.256455 5.08117 0.134457 5.33784C-0.139145 5.91347 0.00531267 6.69905 0.563236 7.67098C0.640314 7.80459 0.751593 7.8719 0.905239 7.96583C0.916979 7.97386 0.92974 7.9809 0.941991 7.98843ZM1.44376 7.11244C1.42947 7.1039 1.41518 7.09536 1.40191 7.08732C0.927188 6.2269 1.01499 5.86525 1.0548 5.77283C1.1038 5.65931 1.20538 5.62817 1.20998 5.62616C1.46214 5.58045 1.6408 5.35743 1.62702 5.10528L1.62701 5.10506C1.62602 5.08488 1.57667 4.07912 1.82405 3.16041C1.82967 3.13881 2.44629 1.00458 5.22162 1.00458C7.96989 1.00458 8.59417 3.07502 8.61816 3.1584C8.86604 4.07908 8.81671 5.08482 8.81572 5.10505L8.81571 5.10528C8.80192 5.35743 8.98058 5.58045 9.23275 5.62616C9.23377 5.62616 9.33432 5.65931 9.38333 5.76278C9.42672 5.8537 9.52472 6.21133 9.04082 7.08732C9.02754 7.09536 9.01376 7.1039 8.99947 7.11244C8.8055 7.23098 8.63807 7.33344 8.57528 7.54792C8.37621 8.22853 7.03117 10.7646 5.22162 10.7646C3.41207 10.7646 2.06652 8.22853 1.86795 7.54842C1.80516 7.33344 1.63723 7.23098 1.44376 7.11244Z" transform="translate(4.041748 2.599945)" id="Fill-1" fill="#007AFF" fill-rule="evenodd" stroke="none" />
  </g>
</svg>