<?xml version="1.0" encoding="utf-8"?>
<svg width="21px" height="21px" viewBox="0 0 21 21" version="1.1" xmlns:xlink="http://www.w3.org/1999/xlink" xmlns="http://www.w3.org/2000/svg">
  <desc>Created with Lunacy</desc>
  <g id="settings-icon">
    <path d="M9.89237 21L11.1076 21C11.7696 21 12.3366 20.527 12.4553 19.8751L12.6315 18.9064C13.4395 18.7019 14.212 18.3809 14.9342 17.9486L15.7473 18.512C15.9773 18.6708 16.2467 18.7553 16.5261 18.7553C16.8922 18.7553 17.2364 18.6124 17.4948 18.354L18.3545 17.4948C18.8228 17.0269 18.889 16.2914 18.512 15.7468L17.9491 14.9342C18.3809 14.2115 18.7019 13.4391 18.9064 12.631L19.8756 12.4548C20.527 12.3366 21 11.77 21 11.1076L21 9.89237C21 9.22996 20.527 8.66296 19.8756 8.54472L18.9064 8.36896C18.7019 7.56046 18.3809 6.78848 17.9491 6.0658L18.512 5.2532C18.889 4.70811 18.8228 3.97311 18.3545 3.50517L17.4948 2.646C17.0392 2.18993 16.2787 2.12054 15.7468 2.48804L14.9342 3.05139C14.2115 2.61907 13.4395 2.29813 12.6315 2.09361L12.4553 1.12441C12.3366 0.472957 11.7696 0 11.1076 0L9.89237 0C9.23041 0 8.66387 0.472957 8.54472 1.12487L8.36896 2.09361C7.56091 2.29813 6.78848 2.61907 6.06626 3.05139L5.2532 2.48804C4.7218 2.12054 3.96124 2.18993 3.50517 2.646L2.646 3.50517C2.17761 3.97311 2.11141 4.70811 2.48804 5.2532L3.05093 6.0658C2.61907 6.78848 2.29813 7.56046 2.09407 8.36896L1.12487 8.54517C0.472957 8.66296 0 9.22996 0 9.89237L0 11.1076C0 11.77 0.472957 12.3366 1.12487 12.4553L2.09407 12.631C2.29813 13.4391 2.61907 14.2115 3.05093 14.9342L2.48804 15.7468C2.11141 16.2914 2.17761 17.0269 2.646 17.4948L3.50517 18.354C3.96124 18.8101 4.72135 18.879 5.2532 18.512L6.06626 17.9486C6.78848 18.3809 7.56046 18.7019 8.36896 18.9064L8.54472 19.8756C8.66387 20.527 9.23041 21 9.89237 21ZM6.3 17.0196C6.22467 16.9707 6.13839 16.9465 6.05257 16.9465C5.96172 16.9465 5.87087 16.9739 5.7928 17.0278L4.73367 17.761C4.55563 17.8833 4.30272 17.86 4.1507 17.7085L3.29152 16.8493C3.13539 16.6932 3.11348 16.448 3.23902 16.2668L3.9722 15.2072C4.07765 15.0552 4.08085 14.8552 3.98041 14.7C3.47002 13.9093 3.11211 13.0474 2.91626 12.1398C2.87746 11.9586 2.73365 11.8198 2.55196 11.786L1.28785 11.5568C1.07054 11.5171 0.913043 11.3281 0.913043 11.1076L0.913043 9.89237C0.913043 9.67141 1.07054 9.48241 1.28785 9.44315L2.55196 9.21398C2.73365 9.1802 2.87746 9.04141 2.91626 8.86017C3.11211 7.95261 3.47002 7.0907 3.98041 6.3C4.08085 6.14478 4.07765 5.94437 3.9722 5.79235L3.23902 4.73322C3.11348 4.55198 3.13539 4.30683 3.29152 4.1507L4.1507 3.29152C4.30272 3.13996 4.55609 3.11622 4.73322 3.23902L5.7928 3.9722C5.94437 4.07765 6.14478 4.0813 6.3 3.98041C7.09115 3.46957 7.95261 3.11165 8.86063 2.91626C9.04096 2.87746 9.18065 2.7332 9.21352 2.5515L9.44315 1.2883C9.48287 1.071 9.67187 0.913043 9.89237 0.913043L11.1076 0.913043C11.3286 0.913043 11.5171 1.071 11.5568 1.28785L11.7865 2.5515C11.8193 2.7332 11.959 2.87746 12.1394 2.91626C13.0478 3.11165 13.9088 3.46957 14.7 3.98041C14.8557 4.0813 15.0561 4.07765 15.2077 3.9722L16.2668 3.23902C16.4439 3.11576 16.6968 3.13996 16.8493 3.29152L17.7089 4.1507C17.8651 4.30683 17.887 4.55198 17.761 4.73322L17.0278 5.79235C16.9228 5.94437 16.9196 6.14478 17.0196 6.3C17.5304 7.0907 17.8883 7.95261 18.0837 8.86017C18.1225 9.04141 18.2663 9.1802 18.4485 9.21398L19.7122 9.4427C19.9295 9.48241 20.087 9.67141 20.087 9.89237L20.087 11.1076C20.087 11.3281 19.9295 11.5171 19.7122 11.5564L18.4485 11.786C18.2663 11.8198 18.1225 11.9586 18.0837 12.1398C17.8883 13.0474 17.5304 13.9093 17.0196 14.7C16.9196 14.8552 16.9228 15.0552 17.0278 15.2072L17.761 16.2668C17.887 16.448 17.8651 16.6932 17.7089 16.8493L16.8493 17.7085C16.6973 17.86 16.4444 17.8838 16.2668 17.761L15.2077 17.0278C15.0561 16.9223 14.8552 16.9182 14.7 17.0196C13.9093 17.53 13.0478 17.8883 12.1394 18.0837C11.959 18.1225 11.8193 18.2668 11.7865 18.4485L11.5568 19.7117C11.5171 19.929 11.3286 20.087 11.1076 20.087L9.89237 20.087C9.67187 20.087 9.48287 19.929 9.44315 19.7122L9.21352 18.4485C9.18065 18.2668 9.04096 18.1225 8.86063 18.0837C7.95215 17.8883 7.0907 17.53 6.3 17.0196Z" transform="translate(0 3.051758E-05)" id="Fill-1" fill="#007AFF" fill-rule="evenodd" stroke="none" />
    <path d="M0 4.1087C0 6.37441 1.84343 8.21739 4.1087 8.21739C6.37396 8.21739 8.21739 6.37441 8.21739 4.1087C8.21739 1.84298 6.37396 0 4.1087 0C1.84343 0 0 1.84298 0 4.1087ZM0.913043 4.1087C0.913043 2.34698 2.34652 0.913043 4.1087 0.913043C5.87087 0.913043 7.30435 2.34698 7.30435 4.1087C7.30435 5.87041 5.87087 7.30435 4.1087 7.30435C2.34652 7.30435 0.913043 5.87041 0.913043 4.1087Z" transform="translate(6.391357 6.391296)" id="Fill-4" fill="#007AFF" fill-rule="evenodd" stroke="none" />
  </g>
</svg>